<mxfile host="app.diagrams.net" agent="Mozilla/5.0 (Windows NT 10.0; Win64; x64) AppleWebKit/537.36 (KHTML, like Gecko) Chrome/139.0.0.0 Safari/537.36" version="28.1.2">
  <diagram name="Page-1" id="vKz1QHrG6FPRk97wELuy">
    <mxGraphModel dx="1213" dy="764" grid="1" gridSize="10" guides="1" tooltips="1" connect="1" arrows="1" fold="1" page="1" pageScale="1" pageWidth="850" pageHeight="1100" math="0" shadow="0">
      <root>
        <mxCell id="0" />
        <mxCell id="1" parent="0" />
        <mxCell id="jjztUm_TLLlTqd2cXKNr-55" value="" style="rounded=0;whiteSpace=wrap;html=1;" vertex="1" parent="1">
          <mxGeometry x="6" y="70" width="788" height="550" as="geometry" />
        </mxCell>
        <mxCell id="jjztUm_TLLlTqd2cXKNr-38" value="" style="rounded=0;whiteSpace=wrap;html=1;dashed=1;" vertex="1" parent="1">
          <mxGeometry x="630" y="120" width="128" height="469" as="geometry" />
        </mxCell>
        <mxCell id="jjztUm_TLLlTqd2cXKNr-37" value="" style="rounded=0;whiteSpace=wrap;html=1;dashed=1;" vertex="1" parent="1">
          <mxGeometry x="180" y="120" width="440" height="469" as="geometry" />
        </mxCell>
        <mxCell id="jjztUm_TLLlTqd2cXKNr-2" value="" style="sketch=0;points=[[0,0,0],[0.25,0,0],[0.5,0,0],[0.75,0,0],[1,0,0],[0,1,0],[0.25,1,0],[0.5,1,0],[0.75,1,0],[1,1,0],[0,0.25,0],[0,0.5,0],[0,0.75,0],[1,0.25,0],[1,0.5,0],[1,0.75,0]];outlineConnect=0;fontColor=#232F3E;fillColor=#E7157B;strokeColor=#ffffff;dashed=0;verticalLabelPosition=bottom;verticalAlign=top;align=center;html=1;fontSize=12;fontStyle=0;aspect=fixed;shape=mxgraph.aws4.resourceIcon;resIcon=mxgraph.aws4.eventbridge;" vertex="1" parent="1">
          <mxGeometry x="220" y="196" width="48" height="48" as="geometry" />
        </mxCell>
        <mxCell id="jjztUm_TLLlTqd2cXKNr-34" style="edgeStyle=orthogonalEdgeStyle;rounded=0;orthogonalLoop=1;jettySize=auto;html=1;flowAnimation=1;fillColor=#e1d5e7;strokeColor=#9673a6;strokeWidth=3;" edge="1" parent="1" source="jjztUm_TLLlTqd2cXKNr-3" target="jjztUm_TLLlTqd2cXKNr-5">
          <mxGeometry relative="1" as="geometry" />
        </mxCell>
        <mxCell id="jjztUm_TLLlTqd2cXKNr-3" value="" style="sketch=0;points=[[0,0,0],[0.25,0,0],[0.5,0,0],[0.75,0,0],[1,0,0],[0,1,0],[0.25,1,0],[0.5,1,0],[0.75,1,0],[1,1,0],[0,0.25,0],[0,0.5,0],[0,0.75,0],[1,0.25,0],[1,0.5,0],[1,0.75,0]];outlineConnect=0;fontColor=#232F3E;fillColor=#E7157B;strokeColor=#ffffff;dashed=0;verticalLabelPosition=bottom;verticalAlign=top;align=center;html=1;fontSize=12;fontStyle=0;aspect=fixed;shape=mxgraph.aws4.resourceIcon;resIcon=mxgraph.aws4.eventbridge;" vertex="1" parent="1">
          <mxGeometry x="370" y="196" width="48" height="48" as="geometry" />
        </mxCell>
        <mxCell id="jjztUm_TLLlTqd2cXKNr-27" style="edgeStyle=orthogonalEdgeStyle;rounded=0;orthogonalLoop=1;jettySize=auto;html=1;flowAnimation=1;fillColor=#f0a30a;strokeColor=#BD7000;strokeWidth=3;" edge="1" parent="1" source="jjztUm_TLLlTqd2cXKNr-4" target="jjztUm_TLLlTqd2cXKNr-7">
          <mxGeometry relative="1" as="geometry" />
        </mxCell>
        <mxCell id="jjztUm_TLLlTqd2cXKNr-4" value="" style="sketch=0;points=[[0,0,0],[0.25,0,0],[0.5,0,0],[0.75,0,0],[1,0,0],[0,1,0],[0.25,1,0],[0.5,1,0],[0.75,1,0],[1,1,0],[0,0.25,0],[0,0.5,0],[0,0.75,0],[1,0.25,0],[1,0.5,0],[1,0.75,0]];outlineConnect=0;fontColor=#232F3E;fillColor=#ED7100;strokeColor=#ffffff;dashed=0;verticalLabelPosition=bottom;verticalAlign=top;align=center;html=1;fontSize=12;fontStyle=0;aspect=fixed;shape=mxgraph.aws4.resourceIcon;resIcon=mxgraph.aws4.lambda;" vertex="1" parent="1">
          <mxGeometry x="216" y="360" width="48" height="48" as="geometry" />
        </mxCell>
        <mxCell id="jjztUm_TLLlTqd2cXKNr-47" style="edgeStyle=orthogonalEdgeStyle;rounded=0;orthogonalLoop=1;jettySize=auto;html=1;flowAnimation=1;fillColor=#e1d5e7;strokeColor=#9673a6;strokeWidth=3;" edge="1" parent="1" source="jjztUm_TLLlTqd2cXKNr-5" target="jjztUm_TLLlTqd2cXKNr-10">
          <mxGeometry relative="1" as="geometry" />
        </mxCell>
        <mxCell id="jjztUm_TLLlTqd2cXKNr-5" value="" style="sketch=0;points=[[0,0,0],[0.25,0,0],[0.5,0,0],[0.75,0,0],[1,0,0],[0,1,0],[0.25,1,0],[0.5,1,0],[0.75,1,0],[1,1,0],[0,0.25,0],[0,0.5,0],[0,0.75,0],[1,0.25,0],[1,0.5,0],[1,0.75,0]];outlineConnect=0;fontColor=#232F3E;fillColor=#ED7100;strokeColor=#ffffff;dashed=0;verticalLabelPosition=bottom;verticalAlign=top;align=center;html=1;fontSize=12;fontStyle=0;aspect=fixed;shape=mxgraph.aws4.resourceIcon;resIcon=mxgraph.aws4.lambda;" vertex="1" parent="1">
          <mxGeometry x="516" y="196" width="48" height="48" as="geometry" />
        </mxCell>
        <mxCell id="jjztUm_TLLlTqd2cXKNr-6" value="" style="sketch=0;points=[[0,0,0],[0.25,0,0],[0.5,0,0],[0.75,0,0],[1,0,0],[0,1,0],[0.25,1,0],[0.5,1,0],[0.75,1,0],[1,1,0],[0,0.25,0],[0,0.5,0],[0,0.75,0],[1,0.25,0],[1,0.5,0],[1,0.75,0]];points=[[0,0,0],[0.25,0,0],[0.5,0,0],[0.75,0,0],[1,0,0],[0,1,0],[0.25,1,0],[0.5,1,0],[0.75,1,0],[1,1,0],[0,0.25,0],[0,0.5,0],[0,0.75,0],[1,0.25,0],[1,0.5,0],[1,0.75,0]];outlineConnect=0;fontColor=#232F3E;fillColor=#E7157B;strokeColor=#ffffff;dashed=0;verticalLabelPosition=bottom;verticalAlign=top;align=center;html=1;fontSize=12;fontStyle=0;aspect=fixed;shape=mxgraph.aws4.resourceIcon;resIcon=mxgraph.aws4.cloudwatch_2;" vertex="1" parent="1">
          <mxGeometry x="370" y="494" width="48" height="48" as="geometry" />
        </mxCell>
        <mxCell id="jjztUm_TLLlTqd2cXKNr-28" style="edgeStyle=orthogonalEdgeStyle;rounded=0;orthogonalLoop=1;jettySize=auto;html=1;entryX=0.5;entryY=1;entryDx=0;entryDy=0;flowAnimation=1;fillColor=#e1d5e7;strokeColor=#9673a6;strokeWidth=3;" edge="1" parent="1" source="jjztUm_TLLlTqd2cXKNr-7" target="jjztUm_TLLlTqd2cXKNr-17">
          <mxGeometry relative="1" as="geometry" />
        </mxCell>
        <mxCell id="jjztUm_TLLlTqd2cXKNr-33" style="edgeStyle=orthogonalEdgeStyle;rounded=0;orthogonalLoop=1;jettySize=auto;html=1;flowAnimation=1;fillColor=#e1d5e7;strokeColor=#9673a6;strokeWidth=3;" edge="1" parent="1" source="jjztUm_TLLlTqd2cXKNr-7" target="jjztUm_TLLlTqd2cXKNr-10">
          <mxGeometry relative="1" as="geometry" />
        </mxCell>
        <mxCell id="jjztUm_TLLlTqd2cXKNr-7" value="" style="sketch=0;outlineConnect=0;fontColor=#232F3E;gradientColor=none;fillColor=#7AA116;strokeColor=none;dashed=0;verticalLabelPosition=bottom;verticalAlign=top;align=center;html=1;fontSize=12;fontStyle=0;aspect=fixed;pointerEvents=1;shape=mxgraph.aws4.bucket_with_objects;" vertex="1" parent="1">
          <mxGeometry x="370" y="360" width="47" height="48.88" as="geometry" />
        </mxCell>
        <mxCell id="jjztUm_TLLlTqd2cXKNr-8" value="" style="sketch=0;outlineConnect=0;fontColor=#232F3E;gradientColor=none;fillColor=#7AA116;strokeColor=none;dashed=0;verticalLabelPosition=bottom;verticalAlign=top;align=center;html=1;fontSize=12;fontStyle=0;aspect=fixed;pointerEvents=1;shape=mxgraph.aws4.bucket_with_objects;" vertex="1" parent="1">
          <mxGeometry x="516.75" y="493.64" width="46.5" height="48.36" as="geometry" />
        </mxCell>
        <mxCell id="jjztUm_TLLlTqd2cXKNr-41" style="edgeStyle=orthogonalEdgeStyle;rounded=0;orthogonalLoop=1;jettySize=auto;html=1;flowAnimation=1;fillColor=#e1d5e7;strokeColor=#9673a6;strokeWidth=3;" edge="1" parent="1" source="jjztUm_TLLlTqd2cXKNr-10" target="jjztUm_TLLlTqd2cXKNr-8">
          <mxGeometry relative="1" as="geometry">
            <Array as="points">
              <mxPoint x="690" y="518" />
            </Array>
          </mxGeometry>
        </mxCell>
        <mxCell id="jjztUm_TLLlTqd2cXKNr-10" value="" style="shape=image;verticalLabelPosition=bottom;labelBackgroundColor=default;verticalAlign=top;aspect=fixed;imageAspect=0;editableCssRules=.*;image=data:image/svg+xml,PHN2ZyB4bWxuczp4bGluaz0iaHR0cDovL3d3dy53My5vcmcvMTk5OS94bGluayIgeG1sbnM9Imh0dHA6Ly93d3cudzMub3JnLzIwMDAvc3ZnIiBzdHlsZT0iY29sb3I6IHJnYigwLCAwLCAwKTsgZm9udC1zaXplOiBtZWRpdW07IGZvbnQtc3R5bGU6IG5vcm1hbDsgZm9udC12YXJpYW50LWxpZ2F0dXJlczogbm9ybWFsOyBmb250LXZhcmlhbnQtY2Fwczogbm9ybWFsOyBmb250LXdlaWdodDogNDAwOyBsZXR0ZXItc3BhY2luZzogbm9ybWFsOyBvcnBoYW5zOiAyOyB0ZXh0LWFsaWduOiBzdGFydDsgdGV4dC1pbmRlbnQ6IDBweDsgdGV4dC10cmFuc2Zvcm06IG5vbmU7IHdpZG93czogMjsgd29yZC1zcGFjaW5nOiAwcHg7IC13ZWJraXQtdGV4dC1zdHJva2Utd2lkdGg6IDBweDsgd2hpdGUtc3BhY2U6IG5vcm1hbDsgdGV4dC1kZWNvcmF0aW9uLXRoaWNrbmVzczogaW5pdGlhbDsgdGV4dC1kZWNvcmF0aW9uLXN0eWxlOiBpbml0aWFsOyB0ZXh0LWRlY29yYXRpb24tY29sb3I6IGluaXRpYWw7IiBvdmVyZmxvdz0iaGlkZGVuIiB4bWw6c3BhY2U9InByZXNlcnZlIiBoZWlnaHQ9IjkxIiB3aWR0aD0iMTA1LjkyMTkzNjAzNTE1NjI1IiB2aWV3Qm94PSIxNy4wMTcwMjg4MDg1OTM3NSAwIDEwNS45MjE5MzYwMzUxNTYyNSA5MSI+PGRlZnM+PGNsaXBQYXRoIGlkPSJjbGlwMCI+PHJlY3QgaGVpZ2h0PSI2MzgxNzUiIHdpZHRoPSI2MDAwNzUiIHk9IjAiIHg9IjAiLz48L2NsaXBQYXRoPjxpbWFnZSBpZD0iaW1nMSIgcHJlc2VydmVBc3BlY3RSYXRpbz0ibm9uZSIgeGxpbms6aHJlZj0iZGF0YTppbWFnZS9qcGVnO2Jhc2U2NCwvOWovNEFBUVNrWkpSZ0FCQVFFQVlBQmdBQUQvMndCREFBTUNBZ01DQWdNREF3TUVBd01FQlFnRkJRUUVCUW9IQndZSURBb01EQXNLQ3dzTkRoSVFEUTRSRGdzTEVCWVFFUk1VRlJVVkRBOFhHQllVR0JJVUZSVC8yd0JEQVFNRUJBVUVCUWtGQlFrVURRc05GQlFVRkJRVUZCUVVGQlFVRkJRVUZCUVVGQlFVRkJRVUZCUVVGQlFVRkJRVUZCUVVGQlFVRkJRVUZCUVVGQlFVRkJUL3dBQVJDQUJEQUQ4REFTSUFBaEVCQXhFQi84UUFId0FBQVFVQkFRRUJBUUVBQUFBQUFBQUFBQUVDQXdRRkJnY0lDUW9MLzhRQXRSQUFBZ0VEQXdJRUF3VUZCQVFBQUFGOUFRSURBQVFSQlJJaE1VRUdFMUZoQnlKeEZES0JrYUVJSTBLeHdSVlMwZkFrTTJKeWdna0tGaGNZR1JvbEppY29LU28wTlRZM09EazZRMFJGUmtkSVNVcFRWRlZXVjFoWldtTmtaV1puYUdscWMzUjFkbmQ0ZVhxRGhJV0doNGlKaXBLVGxKV1dsNWlabXFLanBLV21wNmlwcXJLenRMVzJ0N2k1dXNMRHhNWEd4OGpKeXRMVDFOWFcxOWpaMnVIaTQrVGw1dWZvNmVyeDh2UDA5ZmIzK1BuNi84UUFId0VBQXdFQkFRRUJBUUVCQVFBQUFBQUFBQUVDQXdRRkJnY0lDUW9MLzhRQXRSRUFBZ0VDQkFRREJBY0ZCQVFBQVFKM0FBRUNBeEVFQlNFeEJoSkJVUWRoY1JNaU1vRUlGRUtSb2JIQkNTTXpVdkFWWW5MUkNoWWtOT0VsOFJjWUdSb21KeWdwS2pVMk56ZzVPa05FUlVaSFNFbEtVMVJWVmxkWVdWcGpaR1ZtWjJocGFuTjBkWFozZUhsNmdvT0VoWWFIaUltS2twT1VsWmFYbUptYW9xT2twYWFucUttcXNyTzB0YmEzdUxtNndzUEV4Y2JIeU1uSzB0UFUxZGJYMk5uYTR1UGs1ZWJuNk9ucTh2UDA5ZmIzK1BuNi85b0FEQU1CQUFJUkF4RUFQd0Q5VTZ6TC93QVRhUnBkd1lMelZMSzBuQUJNYzl3aU1BZW5CTldOVTFXejBTd212ZFF1b3JPMGhHWkpwbUNxbzl5YThwdDljK0hHcmVOdFgxVFVOWjBUVS83UlMyaHQ0cnVJSHlqR0dCK1p4ajV0dzlPbGN0YXQ3TnFLYXUrN3QvWFk5WEE0SjRsVG5LTW5HSyt6RnU3dXRPeTBiZXZZOUcvNFRmdzcvd0JCM1RmL0FBTGovd0FhUCtFMzhPLzlCM1RmL0F1UC9HdUUxZndYNGZpK0xuaHEyajBQVGx0cGROdlhlSmJWTmpNR2l3U01ZSkdUK2Rkdi93QUlCNFkvNkYzU3YvQUtQL0NzNFRyemNsWmFPM1hzbitwMFZxR0FveHB5Ym0rWlgrejNhL1FrL3dDRTM4Ty85QjNUZi9BdVAvR2ovaE4vRHY4QTBIZE4vd0RBdVA4QXhxUC9BSVFEd3gvMEx1bGYrQVVmK0ZIL0FBZ0hoai9vWGRLLzhBby84SzEvZitYNG5OL3NIOS8vQU1sTld3MU96MVdIenJLNmh1NHM0M3dTQjF6NlpGV3E4cjFEVXZEZnd1K0ppTTVnME93djlKWnBJNElTSTVKVWxVS3hWQmdFS3pET0s5TTAvVUxiVnJHQzhzcDQ3cTFuVVBITkUyNVhVOXdhZEtxcHR4ZHVaYm9qRjRSMEZHckJQMmNsZE5xM3F1MTBjejhSL0QxN3J1bmFiTFlRUTMwK25YMGQ3OWh1SDJwZEJRd0taSUlCNXlDZU1nWnJuUEZXdVgvaVdUVi9DZW0rRUZ1cmsyY1MzTnhjWEVLdzJoblJ0cFlkVzI0YjdvUDNhOUYxZldMSFFOUGx2dFJ1b3JLemlHWG1tYmFxK2xlVmVHdmlmNFhpK0pQaXE4bDFlS0cwdm9yQ08zbm1SMFNSa1dVTU54QUF3V1hyanJYSmlPU00wbk8zTm85dHJQdjl4NitXcXZVb3luR2p6K3lWNDZTK0p5anA3clY3SnQyMzc2R3BCcGI2SDhSL0FtblNUbTVrdGREdW9HbVBWeXZrQW44Y1YyR3ZhcHJ0amN4cHBlaFJhcENVeTBzbDhJQ3JaUEdDcHp4am4zcm45YklQeG04TEVjait5NzcvQU5DaHJvTmUwUFZkVXVZNUxEeEhkYU5FcWJXaGd0b0pBeHlmbXpJakgyNE9PSzBnbkZWRkMrL1MzWmQ5REN2T05TVkNkYmwxZzIrYm10OGMvd0NYVXpQK0VoOFlmOUNmYmY4QWczWC9BT04xZTBiVi9FVjVmckZxUGgySFRyVWdrenBxQ3pFSHNOb1FmenFqL3dBSWg0ai9BT2g3MUgvd0FzLy9BSTFWN1J2RDJzNmRmck5lZUtielZZQUNEYlRXdHZHcFBZNVNNTng5YXFQdE9aWDV2L0pQMDFNYXYxYmtmTDdPL2w3Vy93QXI2ZmZvWlYwTS9HZXlCNUgvQUFqOXgvNlVRMDM0TGdMOFA3UlFNS3R6ZEFBZEFQdEVuRlVmRStrWHVyL0Zhd1N4MWlmUlpVMFNZdE5ieFJ5TXltZVBLNGtWZ094eUJuaXVqK0hzR2sybmhLemcwU2FXNTArSnBFV2FiTzkzRWpCeTJRT1MrN3Q5S3pwSnZFTit2L3RwMVlxVVZsOElwM2I1T2owdDdUZDJ0cmZTemV6MklQaUo0Y3Z0ZjAvVHBkT1NDNHU5TnZvNzVMUzZPMks0Mmdnb1RnNFBPUWNjRUN1YzhUZUl0YThUM09zZUV0TjhNd1N6Zlk0a3U3dTV1MEVWc1owYnF1M0w3Y045M3JpdlFOWjF1dzhPNmRMZjZsZHhXVm5GamZOTTJGR2VCK1B0WGxmaHY0b2VHSWZpUDRxdlpkVlNDenZvckNPM25tamRFZGtXUU1NbFFCZ3N2WEhXcHhEaEdhaTU4dk52dHRaOS91S3k2TmVyUmxPTkhuOWtyeDBsOFRsSFQzV3IyVGJ0OStocXc2VWRDK0pIZ1hUbW1hNE5wb2QxQVpXNnZ0OGdaL0hGZW0xd1d0a044WmZDcEJ5RHBkOWdqL2VocnZhNktDVVhOTHYraVBQekNUbkdoT1c3aC83Zk1LS0tLNnp5RHpYeGRyZDlvbnhUc0pOUDBXNTF5ZVRSWmxNRnRKR2hVZWZIOHhMa0RHY0Rqbm11aStHdWczZmh2d2JaV1YrcUplYnBKcFkwYmNFTWtqUHR6M3h1eG4ycW5QOEE4bGtzdit3RFAvNlVSVjJsY1ZLbis4bFViNnRmbC9rZTVqTVJiRFVzT29wWFNiZXQzWnl0MXRwZDdJNVQ0aCtITDdYN0RUcGRORnZMZTZiZXgzMGR0ZEVpS2NxQ05qRUE0KzlrSEJ3UUs1L3hQNGgxL3dBVlhPdCtFdE4wRzFhUVdVS1hkM2QzWTh1QXpvMzhBWEw3ZHJkT3VCWHBkY1BjZUcvRW1tK005YTFuUjVOS2tnMU9LMmphTytNb1pERUhIRzBZNTNuOHFWZW03M2pmWGUzYXovNEE4RGlJOHZMVlVid1Y0YzEwcnVVZXpYUzdWK3YzR1hGcFg5aGZFbndOcHZuTmNmWk5EdTRQTmJxKzB3RFA2VjZaWG05NTRaOGJYbml6VGRlWjlBV2F5dHByWllnMCsxaElVSko0N2JCK2RiVzd4NS9jOE8vOTl6LzRVcU12WnVTNVhhK21ua2tYaktheENwUDJzVzFHejE2ODBuK3AxMUZjanU4ZWYzUER2L2ZjL3dEaFJ1OGVmM1BEdi9mYy93RGhYUjdYKzYvdVBPK3FmOVBJL2VRei93REpaTEwvQUxBTS93RDZVUlYybGNuNGY4TjZ2L3drODJ2NjdjMmNsMzlsK3hXOXZZSXdqaWpMaDJKWmpsbUpDK2dBRmRaUlJUdEp0V3V4NHlVVzRRaksvTEZKdGJYMWY2aFJSUlc1NTRVVVVVQUZGRkZBQlJSUlFCLy8yUT09IiBoZWlnaHQ9IjEwMSIgd2lkdGg9Ijk0Ii8+PGNsaXBQYXRoIGlkPSJjbGlwMiI+PHJlY3QgaGVpZ2h0PSI2MzgxNzUiIHdpZHRoPSI1OTM5NDUiIHk9IjAiIHg9IjAiLz48L2NsaXBQYXRoPjxjbGlwUGF0aCBpZD0iY2xpcDMiPjxyZWN0IGhlaWdodD0iNDY2NzI1IiB3aWR0aD0iNDY2NzI1IiB5PSIwIiB4PSIwIi8+PC9jbGlwUGF0aD48aW1hZ2UgaWQ9ImltZzQiIHByZXNlcnZlQXNwZWN0UmF0aW89Im5vbmUiIHhsaW5rOmhyZWY9ImRhdGE6aW1hZ2UvcG5nO2Jhc2U2NCxpVkJPUncwS0dnb0FBQUFOU1VoRVVnQUFBRXNBQUFCTENBTUFBQUFQa0lyWUFBQUFBWE5TUjBJQXJzNGM2UUFBQUFSblFVMUJBQUN4and2OFlRVUFBQUdiVUV4VVJRQUFBT0ZiRytKWkcrUmJHK0phSGVKYUhPSmFIUDlBQU9KYUhPSmFITjlhRytKWkhlSmFIT0phSGQ5Z0lOOWdJT0paRytKYkcrSmJITjlaR3VGWkcrTmFIT0phSE9KYUhlTmNIT0phSE9GWkh1SmFIZU5hSE9OYUhPWlpHdUphRytOWkhPSmFIZU5hSE9GWkhlRlpIT0pZSGVOWkhPSmFIT0ZhR3VGYUhPQmFIT0pYSGVCWkhPcFZGZU5iSEVBNFFEdzZQa0JBUUR3NVBUdzZQanc1UER3NlB6czVQanM1UFR3NlBrQkFRRHc3UHp3NlBqczdRRHc1UHVOYkhPRmFITjlZSUVCQVFEMDZQVDA2UFRrNVFEczZQenc2UHp3NFFFQkFRRDA2UGp3N1BqczdQVHc4UUR3N1B6azVRRG82UUR3NlBqdzdQdDliR3owNlBUdzZQam82UUR3NlBqdzZQanM3UFR3NlBqMDVQVDA3UGowNlBUMDVRRHc2UHVCYUhlSmFIRkpBT3p3NlBqdzZQVHM3UUR3OFFEdzZQa0JBUUR3NlAwQTNRRHc1UGp3NlB6dzdQK0ZaSE1oWElEdzZQanc2UGtBMVFPTmFIRUJBUU9GYUhEczdQVHc2UGp3NlBqMDZQenc2UGowNlB1SmJIRHc2UGp3NlArRmJHK0piSFR3NVB1TmNIRHc1UERzNVBUdzdQajA1UGp3N1BqdzZQejA3UGpBak0rWUFBQUNKZEZKT1V3QlVoQnhnLytNRTc2OHdVUFBmQ0JDTWFPY29jTFBMdXlUM1BKL1AxeFREcTVlYm1IZzBTUHRFaUd3c1pBeXJJT3NVdjh0SXAzUndmQWkzakRSNHY0QWdCRnhZSktPelJBemJsR3c4dXlnczE0YzRWUDh3ODlOb3oxQ1RZRkRIZE5zNGdNTTRRSWdRcnh5WXk3OWNPUHYzR01jWWtHU1FoSi92MzdmanEweVBuRUJNYk9lZ21NZUxLUVpuSkFBQUFBbHdTRmx6QUFBT3d3QUFEc01CeDIrb1pBQUFCQjVKUkVGVVdFZnRsTnRYV2xjUXhpZUpJMm8xcmJGcU5HblNwa2x0ZWxNQ0FrY2t5UkZCSVNxMGZtQlFZbHNFRGlTbUIydEZvYVNYM05vL3Uydk9MWGlTbFVWWWZjZ0R2d2M5ZSsrWmp6M2ZucjJKZXZUbzBhUEhlOEtacytmY1U5M1N4OXovUDRsNUJwaDUwRDNiSFVNc2ZPQ2U3b28rNW1IbWtmUDIrTVBUeSsvRVI4eWpGNWpQeXZmWXgrUERQT0hJdmpPVHpCZEhtYWVtK3k1ZE1NcmxNWGRJeC9UemxJY3VteW9HbjNqY0laMXloZm1xZlFBRG4wNHdEMXgwaDNUSzBHZk0xNGpvODZuSjZ6Zm9peG1lK3RJZDBoblROMGRrTzE5Smw0bmhYdzh6ZitNTzZvU2hhNmJWTTVOMlVlZEdtRys2b2pwaTFCQ2FHdTl6K3VuOEJQTjRWNzczTTNQL21XL2JacjdqdDdUVzdKeVg2SmJQVHpRZklBcjZRcVFzVUhpUmdyNEkwVzNaMXNpZHU2L0NyNzUyTGRYRnBlaXkrUm1McjlCcUlubVAxdFpqdEJGWGlWSytZSHFWWXQvUEV0MDFiT2VaY2FjemYyRG1vVFlsMmt3QXdQd3FFV1d5VzBGYTlOMVhLSmZib3UwZFVpaWZmSkFtMm4zZ0ZYdCsvRWtNdS9PejM4NGRQTDJ4Z2lnQjJGT0lrc1ZTbURielJLV3l0cUFxbGIxWmloU3JENGtlN1d0R3NPZng3Y3UvaFBVbE8xa2E5b1lqdFMwNk5mbmpCTHlkZ3pSUUpDTC93ZlZwajJ6c1YyY3BEZXg1NlI2eUhVb1pQMzVJVktxdFRQREE0Rzl0RDFrVndCRVJSU3p6RDVaQ2hhaFpqNkJGdy9Wanh4MGxsY21vUVNCTHREeUh3Q1hyWnR1T2lWYkN5YTJlNkViSklkWE1MVGNNSzNNWkdha1JHU2xKWUl0bW0wRGdzVHpWelB5N25TNkh1SzZZMzM0ekZVQkZob2U3OWpBckJpWGxxMFZ4SUs0bGdDY3FlZjc0YzBTZU1Wc3JMeEVMeGo1V2FvQWVyOC9MU1J3UktUNEF1K1hqUFFCcGxWSUE5RVpjRFA3cmxwMUNOUGIzRlZ1SzZFVEVua2hGTGNDM0ljM2ZCTkpFZFNEN1ZDS2themJwR1pBVE03TEdzUzlZcFp4R1hSQ3hZNklBMERRalNnQU92RFZneFF4SkFIVXBzVzRaRER4L294U1JJa1hvR2NvQmVXdXFBUlNQZ0hWcldBZGVpRS9QaUtob09uaS9UYUFkci9nZlhnVlF0V2JtZ05STG9HQU5DN0tsQkNBVkw4bDlBMnBpeHB2WTBJR0tlR3MxUndhb3JWYU13ZzNxUUVUVkFja3ZBQzJ0QmVSZXExSXJyOG0vSnZCdzAzRFlvQ0pOa1FUMnJLZ0tFQldmSlAwRStJZWVTaUZ0TXVKVXFJRmRoY2d2TWdFQVRTbFMyVEhzaThJcWNydTRCU3lXcExlSWFCK0ltWWZ2WEFjRFRYb3pGNG5wc3VXWFlta3RHU3lMZXlFaXRTV0w0YklQc3czQW13ZjJKYWRsL0lKVTJYcDExUVQ3dlVFMkplZms4SzhzcmhtdkI2QWZBZzBKUFpFTzBzMzdLMVhHVDJrcFJtOEJpWlRSUlB2bTZMbjFaSlNheG5CckVjaFJ6S3g0R1VCSkZxVkt1NFZNMUtVbjZVZXhxTndISGRBeXg1WDR6cVoxTzRnVWYvbEZPS3BwcFZLRy9QbThIR00xR0F6S0UwdGFxRkFJT0pHbnFRSno3cmx1S1FFKzkxeTNIQUh6N3JsdVdhblhyVTd0MGFOSGp4N3ZBZjhCc0JjY054RnNOc0VBQUFBQVNVVk9SSzVDWUlJPSIgaGVpZ2h0PSI3NSIgd2lkdGg9Ijc1Ii8+PGNsaXBQYXRoIGlkPSJjbGlwNSI+PHJlY3QgaGVpZ2h0PSI0NjY3MjUiIHdpZHRoPSI0NjY3MjUiIHk9Ii0wLjI1IiB4PSItMSIvPjwvY2xpcFBhdGg+PC9kZWZzPjxnIHRyYW5zZm9ybT0idHJhbnNsYXRlKC05MjIgLTM0NykiPjxnIHRyYW5zZm9ybT0ibWF0cml4KDAuMDAwMTA0OTg3IDAgMCAwLjAwMDEwNDk4NyA5NjAgMzQ3KSIgY2xpcC1wYXRoPSJ1cmwoI2NsaXAwKSI+PGcgdHJhbnNmb3JtPSJtYXRyaXgoMS4wMTAzMiAwIDAgMSAtMSAwKSIgY2xpcC1wYXRoPSJ1cmwoI2NsaXAyKSI+PHVzZSB0cmFuc2Zvcm09InNjYWxlKDYzMTguNTYgNjMxOC41NikiIHhsaW5rOmhyZWY9IiNpbWcxIiBoZWlnaHQ9IjEwMCUiIHdpZHRoPSIxMDAlIi8+PC9nPjwvZz48ZyB0cmFuc2Zvcm09Im1hdHJpeCgwLjAwMDEwNDk4NyAwIDAgMC4wMDAxMDQ5ODcgOTkwIDM2NSkiIGNsaXAtcGF0aD0idXJsKCNjbGlwMykiPjxnIGNsaXAtcGF0aD0idXJsKCNjbGlwNSkiPjx1c2UgdHJhbnNmb3JtPSJtYXRyaXgoNjIyMyAwIDAgNjIyMyAtMSAtMC4yNSkiIHhsaW5rOmhyZWY9IiNpbWc0IiBoZWlnaHQ9IjEwMCUiIHdpZHRoPSIxMDAlIi8+PC9nPjwvZz48dGV4dCB0cmFuc2Zvcm09InRyYW5zbGF0ZSg5MzkuMDE3IDQzNSkiIGZvbnQtc2l6ZT0iMTYiIGZvbnQtd2VpZ2h0PSI0MDAiIGZvbnQtZmFtaWx5PSJBcmlhbCxBcmlhbF9NU0ZvbnRTZXJ2aWNlLHNhbnMtc2VyaWYiPkRhdGFicmlja3MgSm9iPC90ZXh0PjwvZz48L3N2Zz4=;" vertex="1" parent="1">
          <mxGeometry x="654" y="351.37" width="76" height="65.25" as="geometry" />
        </mxCell>
        <mxCell id="jjztUm_TLLlTqd2cXKNr-11" value="" style="whiteSpace=wrap;html=1;shape=mxgraph.basic.document" vertex="1" parent="1">
          <mxGeometry x="52" y="354" width="30" height="36" as="geometry" />
        </mxCell>
        <mxCell id="jjztUm_TLLlTqd2cXKNr-13" value="2025-07.parquet" style="text;html=1;align=center;verticalAlign=middle;whiteSpace=wrap;rounded=0;" vertex="1" parent="1">
          <mxGeometry x="27" y="408" width="100" height="30" as="geometry" />
        </mxCell>
        <mxCell id="jjztUm_TLLlTqd2cXKNr-14" value="" style="whiteSpace=wrap;html=1;shape=mxgraph.basic.document" vertex="1" parent="1">
          <mxGeometry x="62" y="366" width="30" height="36" as="geometry" />
        </mxCell>
        <mxCell id="jjztUm_TLLlTqd2cXKNr-15" value="&lt;font style=&quot;color: rgb(51, 51, 255);&quot;&gt;NYC.GOV&lt;/font&gt;" style="text;html=1;align=center;verticalAlign=middle;whiteSpace=wrap;rounded=0;fontStyle=1" vertex="1" parent="1">
          <mxGeometry x="17" y="320" width="100" height="30" as="geometry" />
        </mxCell>
        <mxCell id="jjztUm_TLLlTqd2cXKNr-26" style="edgeStyle=orthogonalEdgeStyle;rounded=0;orthogonalLoop=1;jettySize=auto;html=1;flowAnimation=1;fillColor=#f0a30a;strokeColor=#BD7000;strokeWidth=3;" edge="1" parent="1" source="jjztUm_TLLlTqd2cXKNr-16" target="jjztUm_TLLlTqd2cXKNr-4">
          <mxGeometry relative="1" as="geometry" />
        </mxCell>
        <mxCell id="jjztUm_TLLlTqd2cXKNr-16" value="EventBridge&lt;div&gt;Ingestion&lt;/div&gt;" style="text;html=1;align=center;verticalAlign=middle;whiteSpace=wrap;rounded=0;" vertex="1" parent="1">
          <mxGeometry x="190" y="246" width="100" height="30" as="geometry" />
        </mxCell>
        <mxCell id="jjztUm_TLLlTqd2cXKNr-17" value="EventBridge&lt;div&gt;Processing Trigger&lt;/div&gt;" style="text;html=1;align=center;verticalAlign=middle;whiteSpace=wrap;rounded=0;" vertex="1" parent="1">
          <mxGeometry x="337" y="244" width="113" height="30" as="geometry" />
        </mxCell>
        <mxCell id="jjztUm_TLLlTqd2cXKNr-18" value="&lt;div&gt;Processing Trigger&lt;/div&gt;&lt;div&gt;Lambda&lt;/div&gt;" style="text;html=1;align=center;verticalAlign=middle;whiteSpace=wrap;rounded=0;" vertex="1" parent="1">
          <mxGeometry x="483.5" y="244" width="113" height="30" as="geometry" />
        </mxCell>
        <mxCell id="jjztUm_TLLlTqd2cXKNr-19" value="&lt;div&gt;Ingestion&lt;/div&gt;&lt;div&gt;Lambda&lt;/div&gt;" style="text;html=1;align=center;verticalAlign=middle;whiteSpace=wrap;rounded=0;" vertex="1" parent="1">
          <mxGeometry x="161.5" y="408.88" width="152" height="30" as="geometry" />
        </mxCell>
        <mxCell id="jjztUm_TLLlTqd2cXKNr-20" value="S3 Bucket&lt;div&gt;Raw Data&lt;/div&gt;" style="text;html=1;align=center;verticalAlign=middle;whiteSpace=wrap;rounded=0;" vertex="1" parent="1">
          <mxGeometry x="337" y="408.88" width="113" height="30" as="geometry" />
        </mxCell>
        <mxCell id="jjztUm_TLLlTqd2cXKNr-21" value="S3 Bucket&lt;div&gt;Processed&amp;nbsp;&lt;span style=&quot;background-color: transparent; color: light-dark(rgb(0, 0, 0), rgb(255, 255, 255));&quot;&gt;Data&lt;/span&gt;&lt;/div&gt;" style="text;html=1;align=center;verticalAlign=middle;whiteSpace=wrap;rounded=0;" vertex="1" parent="1">
          <mxGeometry x="483.5" y="542" width="113" height="30" as="geometry" />
        </mxCell>
        <mxCell id="jjztUm_TLLlTqd2cXKNr-22" value="CloudWatch" style="text;html=1;align=center;verticalAlign=middle;whiteSpace=wrap;rounded=0;" vertex="1" parent="1">
          <mxGeometry x="337" y="542" width="113" height="30" as="geometry" />
        </mxCell>
        <mxCell id="jjztUm_TLLlTqd2cXKNr-25" style="edgeStyle=orthogonalEdgeStyle;rounded=0;orthogonalLoop=1;jettySize=auto;html=1;entryX=0;entryY=0.5;entryDx=0;entryDy=0;entryPerimeter=0;flowAnimation=1;fillColor=#f0a30a;strokeColor=#BD7000;strokeWidth=3;" edge="1" parent="1" source="jjztUm_TLLlTqd2cXKNr-14" target="jjztUm_TLLlTqd2cXKNr-4">
          <mxGeometry relative="1" as="geometry" />
        </mxCell>
        <mxCell id="jjztUm_TLLlTqd2cXKNr-29" style="edgeStyle=orthogonalEdgeStyle;rounded=0;orthogonalLoop=1;jettySize=auto;html=1;entryX=0;entryY=0.5;entryDx=0;entryDy=0;entryPerimeter=0;flowAnimation=1;fillColor=#f0a30a;strokeColor=#BD7000;strokeWidth=3;" edge="1" parent="1" target="jjztUm_TLLlTqd2cXKNr-6">
          <mxGeometry relative="1" as="geometry">
            <mxPoint x="240" y="440" as="sourcePoint" />
            <Array as="points">
              <mxPoint x="240" y="518" />
            </Array>
          </mxGeometry>
        </mxCell>
        <mxCell id="jjztUm_TLLlTqd2cXKNr-30" value="metrics" style="text;html=1;align=center;verticalAlign=middle;whiteSpace=wrap;rounded=0;fillColor=default;" vertex="1" parent="1">
          <mxGeometry x="187.5" y="470" width="100" height="21" as="geometry" />
        </mxCell>
        <mxCell id="jjztUm_TLLlTqd2cXKNr-32" value="emits event" style="text;html=1;align=center;verticalAlign=middle;whiteSpace=wrap;rounded=0;fillColor=default;" vertex="1" parent="1">
          <mxGeometry x="343.5" y="305" width="100" height="20" as="geometry" />
        </mxCell>
        <mxCell id="jjztUm_TLLlTqd2cXKNr-35" value="invokes" style="text;html=1;align=center;verticalAlign=middle;whiteSpace=wrap;rounded=0;fillColor=default;" vertex="1" parent="1">
          <mxGeometry x="434" y="199" width="66" height="20" as="geometry" />
        </mxCell>
        <mxCell id="jjztUm_TLLlTqd2cXKNr-39" style="edgeStyle=orthogonalEdgeStyle;rounded=0;orthogonalLoop=1;jettySize=auto;html=1;entryX=1;entryY=0.5;entryDx=0;entryDy=0;entryPerimeter=0;exitX=0.026;exitY=0.914;exitDx=0;exitDy=0;exitPerimeter=0;flowAnimation=1;fillColor=#e1d5e7;strokeColor=#9673a6;strokeWidth=3;" edge="1" parent="1" source="jjztUm_TLLlTqd2cXKNr-10" target="jjztUm_TLLlTqd2cXKNr-6">
          <mxGeometry relative="1" as="geometry">
            <Array as="points">
              <mxPoint x="480" y="411" />
              <mxPoint x="480" y="518" />
            </Array>
          </mxGeometry>
        </mxCell>
        <mxCell id="jjztUm_TLLlTqd2cXKNr-40" value="metrics" style="text;html=1;align=center;verticalAlign=middle;whiteSpace=wrap;rounded=0;fillColor=default;" vertex="1" parent="1">
          <mxGeometry x="434" y="470" width="100" height="21" as="geometry" />
        </mxCell>
        <mxCell id="jjztUm_TLLlTqd2cXKNr-42" value="" style="shape=image;verticalLabelPosition=bottom;labelBackgroundColor=default;verticalAlign=top;aspect=fixed;imageAspect=0;editableCssRules=.*;image=data:image/svg+xml,PHN2ZyB4bWxuczp4bGluaz0iaHR0cDovL3d3dy53My5vcmcvMTk5OS94bGluayIgeG1sbnM9Imh0dHA6Ly93d3cudzMub3JnLzIwMDAvc3ZnIiBzdHlsZT0iY29sb3I6IHJnYigwLCAwLCAwKTsgZm9udC1zaXplOiBtZWRpdW07IGZvbnQtc3R5bGU6IG5vcm1hbDsgZm9udC12YXJpYW50LWxpZ2F0dXJlczogbm9ybWFsOyBmb250LXZhcmlhbnQtY2Fwczogbm9ybWFsOyBmb250LXdlaWdodDogNDAwOyBsZXR0ZXItc3BhY2luZzogbm9ybWFsOyBvcnBoYW5zOiAyOyB0ZXh0LWFsaWduOiBzdGFydDsgdGV4dC1pbmRlbnQ6IDBweDsgdGV4dC10cmFuc2Zvcm06IG5vbmU7IHdpZG93czogMjsgd29yZC1zcGFjaW5nOiAwcHg7IC13ZWJraXQtdGV4dC1zdHJva2Utd2lkdGg6IDBweDsgd2hpdGUtc3BhY2U6IG5vcm1hbDsgdGV4dC1kZWNvcmF0aW9uLXRoaWNrbmVzczogaW5pdGlhbDsgdGV4dC1kZWNvcmF0aW9uLXN0eWxlOiBpbml0aWFsOyB0ZXh0LWRlY29yYXRpb24tY29sb3I6IGluaXRpYWw7IiBvdmVyZmxvdz0iaGlkZGVuIiB4bWw6c3BhY2U9InByZXNlcnZlIiBoZWlnaHQ9IjQwLjAwMDA2MTAzNTE1NjI1IiB3aWR0aD0iNDkuMDAwMzA1MTc1NzgxMjUiIHZpZXdCb3g9IjAgLTAuMDAwMDYxMDM1MTU2MjUgNDkuMDAwMzA1MTc1NzgxMjUgNDAuMDAwMDYxMDM1MTU2MjUiPjxkZWZzPjxjbGlwUGF0aCBpZD0iY2xpcDAiPjxyZWN0IGhlaWdodD0iNDAiIHdpZHRoPSI0OSIgeT0iNTU2IiB4PSI4MTUiLz48L2NsaXBQYXRoPjxjbGlwUGF0aCBpZD0iY2xpcDEiPjxyZWN0IGhlaWdodD0iMzgxMDAwIiB3aWR0aD0iNDY2NzI1IiB5PSIwIiB4PSIwIi8+PC9jbGlwUGF0aD48aW1hZ2UgaWQ9ImltZzIiIHByZXNlcnZlQXNwZWN0UmF0aW89Im5vbmUiIHhsaW5rOmhyZWY9ImRhdGE6aW1hZ2UvanBlZztiYXNlNjQsLzlqLzRBQVFTa1pKUmdBQkFRRUFZQUJnQUFELzJ3QkRBQU1DQWdNQ0FnTURBd01FQXdNRUJRZ0ZCUVFFQlFvSEJ3WUlEQW9NREFzS0N3c05EaElRRFE0UkRnc0xFQllRRVJNVUZSVVZEQThYR0JZVUdCSVVGUlQvMndCREFRTUVCQVVFQlFrRkJRa1VEUXNORkJRVUZCUVVGQlFVRkJRVUZCUVVGQlFVRkJRVUZCUVVGQlFVRkJRVUZCUVVGQlFVRkJRVUZCUVVGQlFVRkJRVUZCVC93QUFSQ0FCTUFGMERBU0lBQWhFQkF4RUIvOFFBSHdBQUFRVUJBUUVCQVFFQUFBQUFBQUFBQUFFQ0F3UUZCZ2NJQ1FvTC84UUF0UkFBQWdFREF3SUVBd1VGQkFRQUFBRjlBUUlEQUFRUkJSSWhNVUVHRTFGaEJ5SnhGREtCa2FFSUkwS3h3UlZTMGZBa00ySnlnZ2tLRmhjWUdSb2xKaWNvS1NvME5UWTNPRGs2UTBSRlJrZElTVXBUVkZWV1YxaFpXbU5rWldabmFHbHFjM1IxZG5kNGVYcURoSVdHaDRpSmlwS1RsSldXbDVpWm1xS2pwS1dtcDZpcHFyS3p0TFcydDdpNXVzTER4TVhHeDhqSnl0TFQxTlhXMTlqWjJ1SGk0K1RsNXVmbzZlcng4dlAwOWZiMytQbjYvOFFBSHdFQUF3RUJBUUVCQVFFQkFRQUFBQUFBQUFFQ0F3UUZCZ2NJQ1FvTC84UUF0UkVBQWdFQ0JBUURCQWNGQkFRQUFRSjNBQUVDQXhFRUJTRXhCaEpCVVFkaGNSTWlNb0VJRkVLUm9iSEJDU016VXZBVlluTFJDaFlrTk9FbDhSY1lHUm9tSnlncEtqVTJOemc1T2tORVJVWkhTRWxLVTFSVlZsZFlXVnBqWkdWbVoyaHBhbk4wZFhaM2VIbDZnb09FaFlhSGlJbUtrcE9VbFphWG1KbWFvcU9rcGFhbnFLbXFzck8wdGJhM3VMbTZ3c1BFeGNiSHlNbkswdFBVMWRiWDJObmE0dVBrNWVibjZPbnE4dlAwOWZiMytQbjYvOW9BREFNQkFBSVJBeEVBUHdEOVU2S0tLQUNpaWlnQXJuUEd2eEMwRDRlV2xwYzYvcUNhZkRkVENDSXNyTVdZK3lna0FEcWVncm9YZFkwWjNZS3FqSlluQUE5YS9QZjlvVDRwdDhVZkhzODF0SVcwV3d6YldLOW1VSDVwUHE1R2ZvRkhhdmR5akxYbVZma2xwQmJ2OGtmRjhWY1FyaDdCcXJCSjFaTzBVOXZOdnlTL0ZvL1FoSFdSUXlrTXBHUVFjZ2luVjRKK3laOFZ2K0V4OElIdzVmemJ0VzBaQXNaWS9OTGJkRVAxWDdwOXR2clh2ZGVkaThMUEIxNVVLbTYvSHN6M3NxektqbTJEcDQyaHRKZmMrcWZvOUFvb29yalBXQ2lpaWdBb29vb0FLS0t6ZkVmaUN5OEs2RmZhdnFNb2hzck9KcHBYUG9CMEhxVDBBN2tpcWpGeWFqRlhiSW5PTk9Mbk4yUzFiN0k4VS9hMStLMy9BQWlIaEpmRFZoTnQxWFdFSWxLbm1LMjZNZnE1eW85dDNwWHlqOE92aGhybnhRdnIrMTBTRkhlenRtdVpHa0pDOGZkUUhIM21QQUgxN0ExVzhmZU10UStKWGpTLzFxN0ROY1hrdUlvRitieTA2Skd2MEdCN25KNzE5MWZBSDRXcDhMZkFWdGF6eHFOWXZjWE4rL2NPUnhIbjBRY2ZYY2U5ZnBVNXJoN0w0eGpaMVpmbjErU1doL08xR2pQajNQcDFhamF3MU5XK1hSZXNucS9LL1pId3Y4UHZHbC84TlBHdGhyZHFyQ2F6bHhOQTN5K1pHZUhqYjZqSTlqZzlxL1NIdzlyMWw0bzBPeDFiVHBSUFpYa1N6Uk9PNEk2SDBJNkVkaURYeHY4QXRiL0NuL2hFL0ZhK0o5UGgyNlZyRG56Z280aXVlcmY5OWpMZlVOWFIvc2NmRmI3TGRUZUNOUm14Rk1XdU5OWno5MStza1Erb3l3OXczclhQbkZHR2FZS0dZVUZxbHI2ZFY4bitGenU0VXhsYmhyT0t1UTQxKzdOKzYrbk4wYThwcTN6c3U1OWJVVVVWK2RuNzhGRkZGQUJSUlJRQVY4amZ0amZGYjdaZXcrQ05PbXpEYmxaOVJaRDk2VEdVai9BSGNmY3I2VjljMThrK003LzROZkMvVzc3N1JZWFhqL3hPOHp5WEQzVTRrUlpDU1dEdHhIblBZS3hIZkZmUjVFb0xFKzBjSE54MlNYWHUyOUVsK1orZjhhU3F5eTc2dkd0R2xDYnRLVW0xcC9La2syMi9Mb24zUEFQaDU0cnQvQS9qSFRkZHVkTFRXRnNwUE5XMWtrOHNGd1BsYk9EeXA1SEhVQ3Z0MzRZZnRKK0UvaVhQRllySStqNncvQzJWNlFQTVBwRzQ0YjZjSDJyd0tEOXE2eXNXMldYdzMwRzF0ZW5sSUZCeDlSR0IrbGIybC9GVDRPZkU5MXRQRTNoT0h3cmZ5RUJMNjJBUlZic2ZOakNzRG4rOHVQVTE5Um1tSG5qVjdURVlhU2FXOFpLVFgvYnQ5Zmw5NSthOE40K2xrOHZZWUhNS2NsSjNjWndsQk43YVR0ZFB0ZlR5UHBYNGdlQ3JMNGgrRU5TMEcvR0lydVBDU1l5WXBCeWpqM0JBUDZkNi9PVFViRFYvaDE0d2x0cEM5anJPazNYRG9lVWtRNVZsUGNIZ2c5d1JYNldlSElZTGJRZFBodHRRazFXM2pnUkk3MmFVU3ZPb0dBN09PR0o5ZTlmT1g3WTN3cCszNmZENDIwNkhOeGFoWU5SVkJ5MFdjSkovd0VuYWZZanN0ZU53L2oxaDY3d2xSKzVQYjEvNE8zM0gxL0hlU1N4K0NqbW1IVnF0SlhkdXNkOTEvSzlWNVhQYmZoTjhSTGI0bitCN0RYSU5xVHV2bFhjQy93RExLZGNiMStuUWoySXJzYStEdjJYdml0L3dyM3h3dW5YMDJ6Uk5ZWllKaXgrV0dYcEhKN0RKMm4yT2UxZmVOZVRuR1h2TDhTNEw0WHF2VHQ4ajZqaFRQRm51WFJxemY3eUh1ejllL3dEMjh0Zlc2NkJSUlJYaG4yWVVWNWo4YVAyamZBM3dBT2tEeG5xRnhZblZmTit5K1JhU1Q3dkwyYjg3QWNZOHhldnJXWHAzN1cvd3UxajRaNng0OHNQRVl1OUEwZDRvNzh4MjB2MmkzYVIxUkEwSlVQZ3N3d2NZT0RnOEdnRGErTVZyNDA4U1dVWGh6d2VpYWVMeENiM1dwNU5pVzhYVFltTXNYYm5rRGdlbWNqenZ3eCt4VDRhc1lsZlhkWHZ0VnVPckxiN2JlTDZZK1pqOWNpdEx3VisyOThKdmlCZjMxbm8ydFhrODlsWVhHcFRDVFRwa0FnaFF2STJTdkpDZ25IVTEwbXAvdE8rQU5JK0VHbmZFMjUxSzRYd2pmeStSQmRDemtNalB2ZE1HUEc0Zk5HM1VkcTlTam1XSXc5TDJOQjhxNjIzZnE5L3VzZk5Zcmg3QVkvRS9Xc2JIMnN0a3BQM1lyc283YTd0dTdLRjEreVQ4TjdpMk1VZW1YZHMrTWVkRmV5RnYvSGlSK2xlUWZFSDlqRFZ0TFNTNjhKYWdOWWhHVDlpdk1SVGdlaXQ5MXZ4MjE2MzhMLzJ3ZmhmOFlOWnY5TDhPYTFQTGMyTmpKcVZ3YnF6bGdTT0NNcUhjczRBNDNpdXUrRVB4dThIL0FCMDBLNzFmd2JxaDFLenRMZzJzKytGNFhSOW9ibFhBT0NHR0RqQjU5RFhSaDg2eCtIbHpLbzVlVDEvcjVIQmp1RHNreDFQa2VIVUgzaDdyWDNhUDVwbnduWWVKL0hQd2sxR1N4Z3ZkVjhPWENuTDJjbTVGSjlURzN5bjY0cTM0aytPdmp6eGRwa3VuYXI0anVKN0taZGtrS0pIRUhYMGJZb3lQWTE5c2ZGYnh6NEU4T2FwNFU4UCtOTGVDN244VFgzOW42WEJjV1AybEhuSlJjRTdTRTVkZVRqclVsNThLdmh2NFRzYjNXYnJ3eG8xcGFXVUwzTTl4UGFxeVJSb3BabXdRUUFBQ2EraWp4RGhKdFZLMkhYT3V1ai9GNm53VlRnTE5hU2VId21QYW92bzNKYWRySjJmNEh3dDhQUGhUNGsrSm1wUjIyaTZmSThHNExMZlNLVmdoSGNzL1Q4Qmtuc0svUi9Tckp0TzB5enRHbWE0YUNGSWpLLzNuS3FCdVB1Y1pyaFBobDhjZkEzeE04QVgvQUlvOEo2Z0xqdy9wWmxqdUN0czhMUW1OQTdEeXlBZnVrRVlIT2VLNTZQOEFhNitHYzJoZUV0VWgxaTV1RjhWenlXK2tXa0ZqTkpjM0xwS1ltL2RLcFpSdkczSkFCN1Y4OW11YlR6T1VieDVZeDJYcjNaOTN3end2UjRjcHo1YWpuT2RydlphWHRaYTkrN1BacUsrZlBHSDdkM3dmOEMrS2RWOFBhdnJkN0RxbW1YTDJsekdtbXpPcXlJY01Bd1hCNUhVVjdyb1dzMnZpUFJOUDFheGN5V1YvYngzVURzcFV0RzZobEpCNUhCSEJyd2o3WStSLzI1dFVmd3Q4WHZnUDRubDBYVXRhMHZSYisrdXJ5SFRMVXp5YkFiWGdEZ1pPRGpKSFN2Q2ZpRjRYMS80aitHdjJnZmlkcFBnclZmQzNoYlhyVFRMUFQ5S3VyTXhYRjVLbDVhRjVoQ3VlbmxPeFlaR1pEeVNHTmZwNVJRQitiZjdQM2lqVTdudzE0eDBDNjFyeDdyVTAzZ2JVTGFIVE5aMEZiYXl0cEZ0d2YzY29uZG1JQ2xGR3daRGR1bGVoZnNlL3RDNlZvM3d4OEZmQ2pVL0J2aXRkYkhuMnpYa3VsRDdDclBOTElyRjJmSUdHR1R0NjE5eFVVQWZtUDRXMVh4TDRQL1lRVHdqb3ZoL1VYOFdlTU5ldWRLamlqczNFeTJ6R1B6U2VPQXcyeDg0SDd3K2xkSit5TG8vamI5bkg5b1MxOE8rSXZCR3BlRnZEdmpEVG9yYnkydUZ2b2x1NFl3Rm5hV1BLcnZjUy9LY2JmUEhZQTEraWxGQUh5RCszbGZ6K0hmR3Z3TThTTHBXbzZyWmFINGdlL3U0dE10ek5MNWNiVzdrQWRNa0tjWklIdlhKL3RIL3RSWG54eCtDODNoTDRmK0VQRmRycmZpUFVZdEplSFV0UDhoekFjTTVVcXpBQmlZMEpZZ1lkdlN2dXFpZ0Q4MXYyZnRLOGEvQVR4NTR5OEZhOTRJMVB3em9makR3M01iVzJhY1h5UjNVTnM0VnpOSGxjeUVURGJ3Y3ZHT2dCUFA4QTdKdWo2djhBQVB4VDRHOGYrTnZDdDlxM2huVzdXNDB5eDFGYmVXV1h3OUlMaVFOdWl3ZHF0ODdaQSs3SXhYSkRBL3FUUlFCK1VYaSsvd0JhOExmdEJmRnU2aTF2eHo0WXRkUTEyV1NHWHd2b1F2WTd4UkpJUXpzODBRQUFZYlNOMmR4Nlk1L1Vud3RxU2F6NFowalVJMG1panU3T0dkVXVVQ1NxR1FNQTZnbmEzUEl6d2ExS0tBUC8yUT09IiBoZWlnaHQ9Ijc2IiB3aWR0aD0iOTMiLz48Y2xpcFBhdGggaWQ9ImNsaXAzIj48cmVjdCBoZWlnaHQ9IjM4MTAwMCIgd2lkdGg9IjQ2NjIyNCIgeT0iMCIgeD0iMCIvPjwvY2xpcFBhdGg+PC9kZWZzPjxnIHRyYW5zZm9ybT0idHJhbnNsYXRlKC04MTUgLTU1NikiIGNsaXAtcGF0aD0idXJsKCNjbGlwMCkiPjxnIHRyYW5zZm9ybT0ibWF0cml4KDAuMDAwMTA0OTg3IDAgMCAwLjAwMDEwNDk4NyA4MTUgNTU2KSIgY2xpcC1wYXRoPSJ1cmwoI2NsaXAxKSI+PGcgdHJhbnNmb3JtPSJtYXRyaXgoMS4wMDEwOCAwIDAgMSAwIC0wLjUpIiBjbGlwLXBhdGg9InVybCgjY2xpcDMpIj48dXNlIHRyYW5zZm9ybT0ic2NhbGUoNTAxMy4xNiA1MDEzLjE2KSIgeGxpbms6aHJlZj0iI2ltZzIiIGhlaWdodD0iMTAwJSIgd2lkdGg9IjEwMCUiLz48L2c+PC9nPjwvZz48L3N2Zz4=;" vertex="1" parent="1">
          <mxGeometry x="563.25" y="470" width="49" height="40" as="geometry" />
        </mxCell>
        <mxCell id="jjztUm_TLLlTqd2cXKNr-43" value="" style="shape=image;verticalLabelPosition=bottom;labelBackgroundColor=default;verticalAlign=top;aspect=fixed;imageAspect=0;editableCssRules=.*;image=data:image/svg+xml,PHN2ZyB4bWxuczp4bGluaz0iaHR0cDovL3d3dy53My5vcmcvMTk5OS94bGluayIgeG1sbnM9Imh0dHA6Ly93d3cudzMub3JnLzIwMDAvc3ZnIiBzdHlsZT0iY29sb3I6IHJnYigwLCAwLCAwKTsgZm9udC1zaXplOiBtZWRpdW07IGZvbnQtc3R5bGU6IG5vcm1hbDsgZm9udC12YXJpYW50LWxpZ2F0dXJlczogbm9ybWFsOyBmb250LXZhcmlhbnQtY2Fwczogbm9ybWFsOyBmb250LXdlaWdodDogNDAwOyBsZXR0ZXItc3BhY2luZzogbm9ybWFsOyBvcnBoYW5zOiAyOyB0ZXh0LWFsaWduOiBzdGFydDsgdGV4dC1pbmRlbnQ6IDBweDsgdGV4dC10cmFuc2Zvcm06IG5vbmU7IHdpZG93czogMjsgd29yZC1zcGFjaW5nOiAwcHg7IC13ZWJraXQtdGV4dC1zdHJva2Utd2lkdGg6IDBweDsgd2hpdGUtc3BhY2U6IG5vcm1hbDsgdGV4dC1kZWNvcmF0aW9uLXRoaWNrbmVzczogaW5pdGlhbDsgdGV4dC1kZWNvcmF0aW9uLXN0eWxlOiBpbml0aWFsOyB0ZXh0LWRlY29yYXRpb24tY29sb3I6IGluaXRpYWw7IiBvdmVyZmxvdz0iaGlkZGVuIiB4bWw6c3BhY2U9InByZXNlcnZlIiBoZWlnaHQ9IjYzLjAwMDExNDQ0MDkxNzk3IiB3aWR0aD0iMTA1LjAwMDE4MzEwNTQ2ODc1IiB2aWV3Qm94PSIwIDAgMTA1LjAwMDE4MzEwNTQ2ODc1IDYzLjAwMDExNDQ0MDkxNzk3Ij48ZGVmcz48aW1hZ2UgaWQ9ImltZzAiIHByZXNlcnZlQXNwZWN0UmF0aW89Im5vbmUiIHhsaW5rOmhyZWY9ImRhdGE6aW1hZ2UvcG5nO2Jhc2U2NCxpVkJPUncwS0dnb0FBQUFOU1VoRVVnQUFBSGdBQUFCSUNBWUFBQUE5SGpGL0FBQUFBWE5TUjBJQXJzNGM2UUFBQUFSblFVMUJBQUN4and2OFlRVUFBQUFKY0VoWmN3QUFEc01BQUE3REFjZHZxR1FBQUJFRFNVUkJWSGhlN1YxOXRCMVZkZDlKRUtYMnc0cGRTb3ZFWk02OGwvV1NPZWM5bm9TUWQ4NjVRRUFwV3FxVzF5WFZJbHBZVWdFQnFiVW9iUlFOSUlnUXBKbVo5d0tvcU5YWUZWY3RxTFNyZ0Zwc2JkRXVFSXN0Mm1Yb3FnUS9FRFFtUVRobnV2YVp1VGZ6OXB5NWQrNjdMMTl3ZjJ2OS9zaWIzOTd6Y1diTzdMUDNuaHVBQVhERTVPU3ZCSkU2bWtYeTlFQ284NWpRN3dxRmZnOFQrczlEb2Q0YVJQcTBrVld0RlRBOXZZVGFEckVISTVPdEY0MUUrbmREcnQvT2hOb1FjbjBkRStyYVVLajNocUoxRGh1WHJiR3hOUytrZGd1UDZla2x1TE9RcXc4eXJ2NDlpT1JUb2RCWlQwYjZDUmFwclhnanRGcXRRNmhiQ3RRd3J2NGk1T3FxTXBsUUY0Mk50WDZWNnB0Z05GbzdHZ3AxR2ZHM2dYSDllMVRiRk9INGxHQmNyNTl6bkVKZk9USWhPZFZTY0g3eTgvR2hDSVQrMTFCb1U3bG1IZ1pDZlljSmRVTWc5QWtBc0pqNm5EZFdISzJPWUZ4dENDTDlmM1NuZlpQTGh3TGVPb1h1b3d4ODZpdDJCWm5RczFUZkM0eWQ4dHhReUVlb3J6Wkh1RHFSMnZRQ1BsRmhKQitudmdyR1ZGOUdLTlJab2RDUGV1eWFNOUxmRHNUVThkUjMzOEJwSTR6MHpzb09CcVBGNllmdXE0MnhzYkZEQXlGLzdySEw4TzlqWTlPSFVwdHVZT1A2Wk9wbkx0VW1hdE1MaktzL3Fmckp5Y2IxaFZTUE9ITE5tc09ZMEg5RDlmTmxFT2xmTnBrdGFvSFRZUmpKcDZuamhlSUkxKytnKzJ5RGNmMDVxdTh3MG9ycXV5RVUrdktLanhLWmtQZFRtMTRJaFBvVTlkUG1DRmZMcUg1eWN2STVvZEJmb3RwQnlVVHJZcnF2eGdqRm10K2hEbXRvQXFGL0ZrYnlweUdYdXp6YnZjUTdjRGx2cmFMN1JUQ3UzMEwxYlRLdS80cnF1eUdNNUozVUI2RTVLcEsvU2UyNllGSGRsTSs0dm8rS0VRSFhWMU50bGNxRVhHOExoZjVHeU9YWFFxSHZEWVQrbjBDb0o2dmFObHZ2cFB0cWpMb0JkaTk3cmovQ3hsdlRLN2djd1NtMWJMZDg4cVRmQ01iVjJqd0FjUWRjOGJHSDh1L0t0bTBzVzNYc2k5MEpWL1Q0Qk1zN3FiNE8rT1N3U1AyaTRxTkM5U3BxVzRkQVRLMnMybmY4dkkvcWwwVTY2allUQmx6OUk2NDRSa2ZYL2hxMWRaaWVYcEx2MDYxTWJzTUhvMlBQOVNWVTNoZ3VrQ2djc1VoOWY0VHI5UmlOVWwwM0xGM2FlaDRHSGZTa1NqVEx4NmFPb25hSTRpNm1lZ3pVZHFGZnF2Y2g1UExZaXIyZlYxTGJPb1JDbmUreGQ4UmxZMFhQMWMxVTF5WXVMYW0rRnpEb2RVc29ydThPUld1Y2J1OEwrUnEzZFR6QStrSEM4a1dNeTl2cHllMmhPcDhhSUVLdUxxMXFpd3ZwanFrMzhBNm50ajR5b2I1S2JldUFTejVxNzhqMU5qeFhJbDhVUnZxSEZXMGVNSDZGYUE5ZTRKMUdUN0J6Y1NQNUdhcEhCT0tFdnFaQ0h4aFh2bUR0RzlXL3lkM05ab1gxaXdPaGYxSzFkemZKRFZROU9ySDJ0Nm11dzBHbTF3TVJUT2ovcXB3a01sSVBVRzBiZ2REZnEraWIzLzNlcDRlTnk5UHpwZHJjdjQvd2xxUU9LSUpJVGxLN2puMGsxMUc5ZS85NnRPNDRST3ZOVkg5UUk0ejByZlFrSFNQNU9OVzJnV203aXQ1UjdzWlVLZFdYNFUrWXlOMUxXNjNuQlVJK1NMY0ZYRjFLZlZDRVhQMFp0U3Y0R0FaMFZKOW4wQ3BhUnliMEZWUi9VSU54OVFGNmtnVnRYZW9OczB3ZWZjNUlua1QxWlFTUk9wdmF0Tisxakt1WnlqWXViNmMrS0poUVg2QjIrYkhvVzZrV2djbU4rcFN1M0w3aW1IV0hVNXVERnFGUTc2eWVaTTY2N0pSTEVPRDYybU9ETnd6Vmw4RzQvaWkxR1NtZW1vQzMvcGh1dy8zVTNXZ0lQSmE2REJzR28xVGZSc2oxUFZSZjRyMWhKSmRUbTRNU21MbnluR0IrZ2RncHo2WDZObXF6Umx6ZlE3VmxoRng5dDJJenJrL0ZiYU9pOWJMS05yd0JWdFduL3BZTE9VWDFPZVd1YmtVUXJBaFZiVXFNOUU2c0h2a3lZUHNiaThlT2FiMEVMMHErM2xTcjJiZ2N3L0tYNzBtWTd3Q0hVZXNNcWtmaWdyL3V3dVpyUldMRDVkT1loR2xyUXFFZnBob1c2YmZOOWJRSHJocEZmZWJIY1J2Vmx1R0tIVncrUk8wOHRHNXR5K1VGd1VyMVV1cG5ueUNZYURFODBVRG9Md2RDN3ZBY1pFRzVDeXNlSVZkYndraS9PeHh2blpUWE42a3VaN2NCWGlwYUw1aVR2U2t4NE9xVlZJL0FMRnRGRzZuL0tHdENyajlSMFFqMXFiS21qUHFVcHp5SGFpa3dmMTcvTHZiU3NraitHK1lDWEUxOWJ3TlRrc1VDdjdLOFdBaDJHMkFFRS9xZnFJMGpWMWRSTFNJUWFpUFYwblVxcHY2b0JwL3FzcVlOREpiY1RWdlJLN04wclBVU3F2Y2hqTlNidXFVc3V6SGc4ajhaVjMrSjYycnFkMkF3cnM3MW45ekNzZmNBcTR1b0RSSUw1bFNMOENVejhLa3VhL0IxUWpYSWwwMGN0N1NzUTlSRzh6M2lBQW9zWFE1U1Z3K0VmaExMbThWcmNIQUVYTCtmN21SdnNPY0FyMXdiVUJza1RudHM5ZXBmTDJzeGFjODhUd3JHQzJVZEprS0NTUDZJNnBoUWJ5QzYyaVVldGlkUmJTL2c4ZUoxWlVJL1J2MDFwOXcrY01HL1cxRzdUVmNtNVBJZnNMcVV2MlBWWmZuQnF4dncvUnRFK3V0aHBKNmdkcFM5QmhnUlJ2b0JhcGR6YmlXSUNmV0tpaWFTLzEzV3RGR1R5cXgwWk5RVlB2RFZSYlZOZ1lrYXZKbndHTHJITTNXVXUrZlRqZUtBYzMzZG1nL0poSHdFVTIzTjhyZXdpSzA4SWZDOUZ6dittZ3l3MEZkU3UveFk5RFZ6ZGRKVDRGYzNsVFZ0WU1HOHFwWGZLbXR3UnZBRlNQaGVMT3NHUVo0UTBhZmhjZmJaenZQb3ZKSWxJZGNmOWpqTHllVkQ4M25aaDF5ZldmRlZzTWtBQnhQNk9HcFg4TjZ5emhmdE1pRzllZC9SaWRiTHFSWkxtT1V1Umx3N2V6VEl4aVhHL3JCK01VYmRPQ3NHWFA3WXMxOXlidXBhNnFFSHBwZjRrdlFGc1o5cU5iVm9ncUxaalByTEQ3TEJBTHNUOTkzZGtYd2FsMUtvcUN2dzQvS09la05nQjZkN3pkRGo0ZkxWYlEwVDhrTjB1eU9YeDg3MXR2QncwVHZYbC9pT3NjVEhhTk5GVjJBN3FNZEorNlMrUnZWTmdjMW9GWDhGbXcyd3UwbHdDcXZZNC9UbXRuc0svRUdrZjBEOWxCRkcrZzVxVTE1K2hVSitrMjdIU05oVCs5MXJHTTI3UXVxNk9EUHNvS0UydFFpNWZEMTEwT1k4cG9NT1FpNnZwLzQ2ZmhzTzhJaVFyNkcyamx4ZjU3YjdzbVUxOWVZMmZCa3FGdWwveG0wclZxdzd2S1p2dVJLSTdXM2tIeFJVamlNLzNuNUtqeU5DblVjZGREaXUzMDMxVGRFdDZiNXMxWWt2cG5vZnNHSGMxOWpYemxMNXV5MzhIU050dUdiK2lrM2VBQkJ5L2JycU5neXd1dmQyN3cyNHA5aHpMSTY4ZFFIVjE2TGJBUGVxNE5TaFNISDZuZ1RIZnBZYm1QdWw5dmlVWVRUcGpSM0dwd1QxVVFiV2gzRkFLM1o1b0hPajUrOVBOSjF4RmhMczZCTzh1UUFrZHFGU2ZTM1l1UDRqNnFEaktGSmJxYjRCZXZSazlmZDFRVTJLRWQrYjFSNHVWd0xzM1UrR2RlS0tMVmVYNGxLSS9wMEovV2xxdnk5USszcHkrWWhtUFdvTzNkcFNjRUhlNTRkUWkxM1N3K09yekg2NkM0dDIzbXBPM1BQMDlxcjB0SUhkRmRTMlNIZDY5dE02ZzlyWFkzcEpVUmthTkNERFhyQXZWNDdGVWU3Q1Z4YzFxRVczSW50K2doaTA5SDRxaXZiT3oxZnNQYXhyR0s4RGZ2eEdmZmlJSDdGUld4L2MxMzBlZTByTUJaZExqcjNnUHFMTEg0d0hXYVF2eEtDTmFub2gvN1pLYjZiSDBtR1BJTklMWDB0TG1VeW9ML3ErU3NDRHdSd3B2cnY2VGIvMWsxdkZyeHVvdlk4alFrNVJXeDl3MEJwVmVpSjlCN1h0QnZvT3o0c0Yra3NZN1dQaWhyRzVlZlFTRm1HbkI5NFVvZkEwTHJUOVJmS3BlWDJmbEFkRm5zQ0RrdXR0YnVxSTFGMllLKzc2bVFWWFYyRTNaT1h2QmJFa1NJK2pEdDNhY0R2RVRvaytnaUhmZXBlU2pkYzNCUGhBQjloRG14Yzg1TGZ5VDBuVnYyQ1hhYmMxYjVtWTk2ZjdiSXh1NjY1K0dmQ3BxMTJ3NVYyUzdHRWY3NUpGUFQrTDRmcHVhdFFOb2FoZnB4ZTBMR29kU2UyNm9TNS92aURrYWd1KzQraysrOEdpSU5KSnhYRS9qUFRPa1VpZFhYYnF1anlvenJXcitJdjNkV2p3ZEZ4T2JicUJjZlVISGg4ZFlvY0Z0ZWtGOTAxUnQzaG1uc1RBdGNuSDlFMnd5R1dIUE1tRlhzU2wwVExQK2hiWHEvalZYRWZMOVRZczhWRmRMekN1SityWDFzcGdZb0RhZEFQbXMzR05XL1hWUGg5MUxyVnBndVdUVTBjRlhOK3lJRTBUK09IMzNraXlZSmREWHU1VDJ5czduVU81blhHVllwV0craWdEQy9pNG5zUlNIeTNZOXdOY1ArT3ZEK0RQU3JUcGl2TTllcWJyTURLdWo4RlBQZDNYa3dXTDh6N0wxMGpZRC9BVFZXemJ3Zk91Ky96VXkwZytudHU0dXZkQXg5QUVpM0hhWWVPdDRvZFg1TVY0WndmajZ2ZUxwM1hROWQ2ekJ0aTZpMVdyL01kWDlCWDR5c0dIbzJpZWVCK1dPUEZyeFlXYWlvY1lZb2doaGhoaWlDR0dHR0tJSVo1aHNOZkNZWFlHbG1XYllESkxRU0p0QWkrM0NRVDJNM0FZMVE5eEFDTmJENGNVQTdqZXhQQUZFOFAvbWhoc2xrTG1JMjR6Q1h6ZnBQQlptOEpiN0RYUU5LYy94TDZFM1FTakpvYU5Kb1lmMGtIc2h5YUY3OW1Qdy9QQnpzQ0lTZUhiSm9HUDJiK0cvZk5ONmhCZ2I0YVhtaGcrYVZJd2RMRG1TNXZBT2h6Z05TYkpIMzBUd3k5TUN1KzNHMkhldWVFaCtvZWRnZGVhR0g1R0IyaFEyaG40dzN3SENaeHRVbmlxdmNHazhLaE40Y0xzRm1qeTNkRVFBd0puME9LNjc4YXAxU1R3bFN5RkxTYUZHMDBNbDlzRUxyRUovS21kZ1hOc0NtL0ZmNXNZUG1SaXVNUEVzSXNPYkltdjZlekV4bkFxdll0TUNnL2JCTTYxRzZGeFY4UVEvY1BPd2d0dEFrZGtXZitGR25zVC9KYUo0YXVld2Mxc0NuTy9kckN6d0RFU28wS000R3dDYng5R1pnY21iQUt2b21QbUJuZ1dxaDhUdURzaWdidW91QmpvSDJVcHZOZHJPTVIrZzAzaEdNOVliYWU2RG5BTlptYmdtcnAxRjg3N0pvV2JiUUtWWDFZZFl1R0JzUkFHWWphR00zeHhrVTNnRlpVeFNzRDdNODF6WUZNNHphVHdZMnBNSEgzZEp2RG03RWJ3L3B6UkVQT0huUVZtRXZpZ1NmYXNpVTBDZjF2UkpYQUJIUmNNa3FuT0N6c0RSNW9ZN3FRT0tERkFNekhNMmhsUTh3a1doc2lCRDRxTjRVeDhUZnBtVUpQQ2Q2aU5TZUZXcXNPYmcrcHFrYTJIeFRhRmkwMEtPNmtqSDEzS0xJWXI3U2FZeUlZdFBEMkJxeFE3QTY4MkNYekN4TENEWHMvT2RjMlhSSHVXUGdVd0NDYTZPYjhIMWhndTY1V3YwU283cjZOSjRDR1R3dFUyaHFsc0N3elV3L3RNZ250U0UzaWRTZURqSm9HZjB1dEdhV0o0d01aUStVclNib0pWVkdzVHVJanFHZ09uWDF4c214aCtRaDMzSWtiaE9KM1lHWGpEc3kwU3g1a004OHk0M0RRcGZMRkhnbUxQTlV2aEtYeEFmTUVWd3Fid0huS05kMlNib0ovL1lNU1BZam0xZWI2NVUxZjlpT0YrTXdQWDQ1MzhUQnR3SE5Ec0psaWV4WENXU2VBV2s4REQ5QnIwWkFMM1pyTXdTWDJYZ2RQeG5PdWF3UFZVTXhCd3FkUWtDT3RGekllYkdMNkw3eUc4eTEycGJEUDQveGVTQXhCRk5tcWRuWUYzbVFTMm1nUWVvZWZZbEZoSndsa1NZeCs2bnpLeUZGWVF1eDJZRWFPNkJZRkxkYWJ3VFhxd2d4Qm5oMkxRdDVvVU50Z0UzbWdUT05aK0RBN2ZINUU2N2pOTDRVVTJnZU5zQW0vS1VyaktKUEQzSm9adDdZTE5JRFFKN0RBSlhKR2wwT2p6VkpQQUI4cjJPRjFUellMQ3ZaOHhjQ0RUeHQ1Z3NTeTczNlJ3dTBsZ3BraktuMmRUZUwyTjRXVE03dGpOTUlyTFBQc1JPQnlEbW13TEhKcmRCWWNVeGZUbllJZEVkaDI4QU85NlhGYmdiR1Ezd1lrMmh0UHRESnpyaXUwSkpDYUcyMHdDOTlGYy9VS3hxT0pkbDkwSTlLY1dhNEZQTjk1WUhSOEozSWZuUjNWN0JTNmdtSVZUc3hqdXBpZHpJSEFobnJhRm9FbmhNVGN6elNQK3NEUHd5bzRmbkpwbllDWFY3Qk5nL3hBMkV6U05HcDhOZEVzZUxQOWh4OFU4Z1JtdHd0ZlRtTWFrMi9jNThMMXBFM2dIbmh3OTRXY0RUUW8vejFMNHFHdVdHekQ1ZzNHQWllR1h1SVRDckJmZHZ0K0JuWUFZenBzWWZrQXZ4RE9KSm9ZblRRSzMyMWw0NDBMbTZqRmlOeWw4T2t0aFhsOVE3ak80Rk9nTUtKUEFoekZhcGhmb0lPWGpKb0hQWXNTZjNRTHU5ek9IS09DaTNoZ3VOQ2w4SGkrVTUrSWRjRFFKUEdsaXVNZjFzaVdnTVRxbjV6V0VCNWkzdHB0aEFwYyttTjQwTVR5SUFRVzl3UHVhbUpFeU1Yek9wbkJwTmd2SFp5bDAvZC9YaHVnRDJESmtaMkUxMXArTE91bFdYSFBqY29NT3hDQTBDZXdzYmloc09OOW9VM2hiRnNQeHVKNm14elRFUGtKUlJ3Mnhhb1dOQ25ZR3pyUXBuSStwUTVld1NHRURsakF4VTJSaU41MWVobEU5ZGlwbUtVeTdCTWNtV09XU0lnTkd1UWNTL2gvWThqTVVDdHlyQndBQUFBQkpSVTVFcmtKZ2dnPT0iIGhlaWdodD0iNzIiIHdpZHRoPSIxMjAiLz48Y2xpcFBhdGggaWQ9ImNsaXAxIj48cmVjdCBoZWlnaHQ9IjYwMDA3NSIgd2lkdGg9IjEwMDAxMjUiIHk9IjAiIHg9IjAiLz48L2NsaXBQYXRoPjwvZGVmcz48ZyB0cmFuc2Zvcm09InRyYW5zbGF0ZSgtNTU0IC01MykiPjxnIHRyYW5zZm9ybT0ibWF0cml4KDAuMDAwMTA0OTg3IDAgMCAwLjAwMDEwNDk4NyA1NTQgNTMpIj48ZyBjbGlwLXBhdGg9InVybCgjY2xpcDEpIj48dXNlIHRyYW5zZm9ybT0ic2NhbGUoODMzNC4zOCA4MzM0LjM4KSIgeGxpbms6aHJlZj0iI2ltZzAiIGhlaWdodD0iMTAwJSIgd2lkdGg9IjEwMCUiLz48L2c+PC9nPjwvZz48L3N2Zz4=;" vertex="1" parent="1">
          <mxGeometry x="383" y="130" width="85" height="51" as="geometry" />
        </mxCell>
        <mxCell id="jjztUm_TLLlTqd2cXKNr-44" value="" style="shape=image;verticalLabelPosition=bottom;labelBackgroundColor=default;verticalAlign=top;aspect=fixed;imageAspect=0;editableCssRules=.*;image=data:image/svg+xml,PHN2ZyB4bWxuczp4bGluaz0iaHR0cDovL3d3dy53My5vcmcvMTk5OS94bGluayIgeG1sbnM9Imh0dHA6Ly93d3cudzMub3JnLzIwMDAvc3ZnIiBzdHlsZT0iY29sb3I6IHJnYigwLCAwLCAwKTsgZm9udC1zaXplOiBtZWRpdW07IGZvbnQtc3R5bGU6IG5vcm1hbDsgZm9udC12YXJpYW50LWxpZ2F0dXJlczogbm9ybWFsOyBmb250LXZhcmlhbnQtY2Fwczogbm9ybWFsOyBmb250LXdlaWdodDogNDAwOyBsZXR0ZXItc3BhY2luZzogbm9ybWFsOyBvcnBoYW5zOiAyOyB0ZXh0LWFsaWduOiBzdGFydDsgdGV4dC1pbmRlbnQ6IDBweDsgdGV4dC10cmFuc2Zvcm06IG5vbmU7IHdpZG93czogMjsgd29yZC1zcGFjaW5nOiAwcHg7IC13ZWJraXQtdGV4dC1zdHJva2Utd2lkdGg6IDBweDsgd2hpdGUtc3BhY2U6IG5vcm1hbDsgdGV4dC1kZWNvcmF0aW9uLXRoaWNrbmVzczogaW5pdGlhbDsgdGV4dC1kZWNvcmF0aW9uLXN0eWxlOiBpbml0aWFsOyB0ZXh0LWRlY29yYXRpb24tY29sb3I6IGluaXRpYWw7IiBvdmVyZmxvdz0iaGlkZGVuIiB4bWw6c3BhY2U9InByZXNlcnZlIiBoZWlnaHQ9IjEzOC4zMzg5MjgyMjI2NTYyNSIgd2lkdGg9IjIwNi4yOTEzMjA4MDA3ODEyNSIgdmlld0JveD0iLTM1LjYxMjEyMTU4MjAzMTI1IC0yNi4wNDY0MzYzMDk4MTQ0NTMgMjA2LjI5MTMyMDgwMDc4MTI1IDEzOC4zMzg5MjgyMjI2NTYyNSI+PGRlZnM+PGNsaXBQYXRoIGlkPSJjbGlwMCI+PHJlY3QgaGVpZ2h0PSI4OSIgd2lkdGg9IjEzNyIgeT0iNDAiIHg9IjkyMyIvPjwvY2xpcFBhdGg+PGNsaXBQYXRoIGlkPSJjbGlwMSI+PHJlY3QgaGVpZ2h0PSI4NDc3MjUiIHdpZHRoPSIxMzA0OTI1IiB5PSIwIiB4PSIwIi8+PC9jbGlwUGF0aD48aW1hZ2UgaWQ9ImltZzIiIHByZXNlcnZlQXNwZWN0UmF0aW89Im5vbmUiIHhsaW5rOmhyZWY9ImRhdGE6aW1hZ2UvcG5nO2Jhc2U2NCxpVkJPUncwS0dnb0FBQUFOU1VoRVVnQUFBU3dBQUFESUNBWUFBQUJTMzl4VkFBQUFBWE5TUjBJQXJzNGM2UUFBQUFSblFVMUJBQUN4and2OFlRVUFBQUFKY0VoWmN3QUFEc01BQUE3REFjZHZxR1FBQUJ0WFNVUkJWSGhlN1owSmxDVlZlY2MvakxqaGdvcUtCakhxSUYyM21vR2tRUWE2cXA1c0VaZTRCdGVnSjI2SkM3aEZ4UVgxdUdDTWlERnFvc1RseFBVRWQ4VUZqMUhVb01ZMUlCNFZSUlNWYmZwVnZSa0JaWm1abkYrOXFwNzc3bFRWZXk4OVBkTjAvMy9uM01QUXIyNjkrNnJ1L2RlOTMvMityOHlFRUVJSUlZUVFRZ2doaEJCQ0NDR0VFRUlJSVlRUVFnZ2hoQkJDQ0NHRUVFSUlJWVFRUWdnaGhCQkNDQ0dFRUVJSUlZUVFRZ2doaEJCQ0NDR0VFRUlJSVlRUVFnZ2hoQkJDQ0NHRUVFSUlJWVFRUWdnaGhCQkNDQ0dFRUVJSUlZUVFRZ2doaEJCQ0NDR0VFRUlJSVlRUVFnZ2hoQkJDQ0NHRUVFSUlJWVFRUWdnaGhCQkNDQ0dFRUVJSUlZUVFRb2psNXNxZXUyMmV4Qzhyc3VpMFRZZk4zRG44WEFnaGRqdmZtNXZiTTAvZEUvdHA5SXQrRm0rbDVGbDgyY1lrZnRiVzQ5ZmRNanhlQ0NGMk9hOHl1MW1lUmxtUnVLLzNFM2Rqa2NYYi9OTFA0aTM5SlA1QlA1MTl5TFlUVHZpVHNMNFFRdXdTQmtmRjkxMUk0Zy9sU2Z6SEVhRktvcCtVSXBYRlc3Y0xWM1I5a1VhZnlZK0tEOTVtdGtkNExpR0VXQmJ5WStmdVVLVHVkWU1zM2pReW0wcmloU0p6TDhTT2RlbUcvVzdkVCtPbjVVbjBHLytZUEhQWEZsbjh0aXQ3YnQvd3ZFSUlzZFBZNXR3dGlpeDZTcEhGdng2WlBUSERTdDA3cmtwbjdoN01udllZSkFmZHNjamNhNHNzM2h3STExWDl6TDFnNjRZTnQvYU9GMEtJcGJIdFZYYXpRUklkbTJmeHQzUFBUb1hOYW1IZW5YMTF6eDNDTVdHOUdrUnNrQngwbnlKMTd5K1hocDU5SzgvaUh4ZFovS2h0dmQ3TnczcENDREVWQzFrY0RiTG9ZM2tXWDdkOWRoUnY3YWZ4RHpkaFNKK2Iyek9zMHdaRzkwMXBmR1EvaWI2Q1dHMFh2dWlHUEhGZkdxVHUvaGp4dzNwQ0NOSEpiNCtadVhPZVJLZm5TWFQxeUZJdWlTOGY5T0puTG1VcHQrMEVkNHQrRmoybU5NNTdTOHM4aWYrUVorN2QvVFMrWjFoSENDRjJBSitwZmk5K1pwSEZsL2xpVW1UUk5Ybm0zclM1ZDc5OWR0WXVIOFo1alBSNUVtLzBSYkdmUlRuT3Azd2UxaEZDaUhLNWhxOVU1WTR3c2x3YjlPS3pOdmZ1TjdOdEdaWnJpQi9HK2lLSjM4WU1hN3RveFZ2N1NmenpmdWFlTU0yeVV3aXhpa0V3OHZuNDRJVTArbXhnRU45YUpPNmJSZXFPM2hVR2NZejJlVEs3dnNqaVQrVkpkTU4yd2NUSTc4NjlzdWZXaFhXRUVHdUlLNDZldlZzL2k5OWUrVVl0THNtS05QNVZucm9uWDlLNzE2M0NPc3NONHRqdnVlUDdhZlRkRWRlSmRQWWg0YkZDaURVQVRwMUY0cDdmejl4VkkwS0ZyMVFhdjdyb0hidzNQbFJodlYxSjJjYlM4VFQrT2JZejJiT0VXR044dGRlN2VaSE5QckxJNGd0SDdGUlpkSDAvZGU4djB2WDMzbGtHOVozRUh0dDY5N3BWazQvWDF1UFc3N1dwTjdOQjhZbENyRktLTkg0ZVJ2UmFxUEl5TURuNlNqK05qN3lwREh5V2pJTWtmbHcvaVM4aWhqRlAzU2tyVEdTRkVEdURRUmEvM0Y4Q2t2NWxjeG85L0t3VGJNV0xGYUswdWVjU0RQQjU0aFpGbDdoRU9ac0tzUW9ocm0rUXhLY1hucEdkNWVBQ1dSU1MyZlVyZGFaQ1ZvZ2lpejlZZUc0UEVpd2gxZ0RZZ3hZT2o2TThqVDg2T2xPSnJtSHcvLzdvMmJ1RmRYWVhkVmFJSW5XTFdTRXEvNnhMUEJ1Y0JFdUkxUTYyb0kycE83cklvdk5Hd21PcUxBcVhMaUgwWnFrTXMwTE03cGdWSW5PL3hOMGluM2RKbVNGQ2dpWEUyZ0pmcXp5SlRrUU12RmtNczVjeWl3STdpMkdkNWFMTUNwSE5IcGVuN3RzajJVc1ROMWhJM2FuNXNmZTVBOHZXamIzWlF5VllRcXhoRm81ZmQvczhkYWNpRG92Q1ZXVlJXRWlpdzVmWnZyVkhmejZLKzBuMDhiNmZGYUxjQll6UEpCamEvMzRKbGhDaTNJbERITWlZTUpKT2hpd0txWHRQUHUvMkQrc3NsYzI5dVgzeU5EN0R6d3BSNXR4SzNPY0d5Y3hjazd1RkJFdUlOY0RneUdFTzlvVXNlZ003aHVIbk5ZakV4aXcrTE0raUx3YUIwRVdleHEvWUdWN25PSVRtaVRzcFQ2SXJhanZWMEtEdWZwQW44VU83QXA1cG13UkxpRlZPbnNVdnIxL0JWYVR1dDBYaW5rNXVxdkM0R2tRalQ2T0hGNG03WUVSVXN1amlRZXFlMkNVcWJTQ0dlZVllVm1UUitiNFkwcDVCNXA3UmxXZXIzT0hNWm83TGsrZzduakZlZ2lYRWFxUzBVZFVDVVMyOXlpRGpOSDVnVS9oTHplL201bTR6U04xem1BMXRuMjI1RzR0MDVodkZmUHlBcnJvMXd6VEpNM05GR244Kzk3SkNGRW44K3lKMXJ4OXNjSGZxc0pPVk5pNHluL28yTG14cy9UUitVVWM5SWNSTmxWQ3dGZ2YrTUpid0U0aEMyK0FmZXByUDdaTW44ZWwrZG9jODVRVVU4WWMzWmRFQmJYVVhqajdnVC9NMGZwZGZiK2l3Nmo1QXJ2ZXVHUklKQTdGeGxjSzJXSmZaVlhUZXJrcDlJNFRZRGZpQ2xhZnhXVVZhQmtGN1BsalJOWGthdnhtUkNPdldNSnZhZk1Uc3pDQ056L0xqRW9kdnhZbE84MjFqbHgrM2ZxOGljeThadnY1clVXeTI5TFA0eS8zMHdNNzR4YUc3aFR1cFNPTExSMzJ4b292elhud2lOckN3amhCaUZURXl3MHJqcDE2K2Z2MWVlUlk5MTA4emd6aVF0ejFQM2JPN1hqSFB6S2JJNHFOOHg5UHl2MG4wRzJ4Ui9YbjNoRHh6UHh1MVU4VVhGbW44NkU2N0dUWXU3R2FoalN0eEF3eit0UzlXV0U4SXNjb0lCWXUvTWZndlAyTDlYZnVKZTB1UW9uZ0xiOFlaOTRwNVJLM0o4WFRrZFdCWmRHV2V4YzlseGhYV3J5bHRYTDNaUTRzMC9vSnY0K3FuOFhXbG04VzgyMTlDSmNRYW9rbXdhc29kdU1TNUhNUDJxTmp3aXZuUGtrYTVTekNHanFmeEszTFA4UlNiMVNDTjM0d2dkdGJ0cmR0dmtNWm5qZ1psODg3QzZJdURMRDZzU3pDRkVLdVVMc0dxS1pkNlNYUU0rZHg5MnhIQjBhUlR2dUx3OXVEbzJ2RzBFcCtQOEU3RHJoMUUvTG55SkhwWlA0djcyNytuL0s3eldSWVNVeGpXcWFHZERXK2FGa0tzRmthTTdsbjh6bTI5WHF2aHVqUjZwKzdKL2NSZDRvc0o5cTZGeEQyL3F5NzV0YnBtUmQrYm05dVR0K0VNMzRyajI2bEsyOWx6dGoxMDdqWmhuUm9FS3MraXRFamR1WldoL3lrU0xTRldJYjVnbFVLUnVBdHc0dXdTRjR6Y2VlSmVtYWV4bitKbFM0NEJQWWtlTVUxd05PNExlUnBsQzRuN3VyL3NMSmVPbVh2VFpja2hkK2tTSC9KaUxleVlGMHVPbzBLc1JoWlNkLzl3cVllQk8wL2M1NG9qM1NGdFlsSE9hdWJkL21VOFllQzRpWjJKMkw2MnVqVlhaZEVCZVJwLzJBdXBHYjd6TUkzUEdyZDBiTXFMSmNFU1lnMVFMdld5K0VuaFVxL0kzRENCM3hIcjd4cldxV0VtTmtqZC9mTXNPbWRrS1plNWEvTTBldGMxeHg1NGo3RE9yNU9EN2xqR0xtWWpNN1N0ZVJhZFJ6NnVMc2ZQMXJ4WWVMZ3JORWVJdGNOV2R2VVM5OHJDRTVKOEtDUlhMaVRSeVYzdkpMd1FJVW1pUi9neGhrTWh3VUUwZWpFMnFJdU9YM2ZMb3VlZWpsL1dEbzZmU1hSaTEvbUhlYkZtZHNpTGxhZnhkZjM1NkgzazZTTDFqQVJMaURVRXk3aHJTU2VUdXZjRWIzM2Vzc0JPSFZrVE91eGIyNGd4ckRJdWVLSzNKYy9jVDBzZnJnYkhUOXdmT3BhUGpYbXhLaGVIYzhxOFhHU1NVSG9aSWRZdWlBRDJyWENwaDMyTFY5aDN2YUNDdjI5T0Rya0xJVDA3dkVGNkNzZFA0aFQ3R2M2cjIvTmlEVXQwUHJNNTN6dGVnaVdFcUpaNnN6c3M5Y29YVktUdXJRaFRXS2VtakRITWhpKzNxR3hNVy9MNThZNmZkY3lnbnhlckZNc3FQS2pKeFVHQ0pjUWE0TklON2s1RkZyK21uN2xuZE1ienpjM2RKdSs1a3dpcFdad3BsVEdHMFJYNFNVMFNZOGh5RWdFTVA2OXB6NHNWWFoybjdvM011TnBtWkJJc0lkWUFlZXBlV2dwUDZtN3NaKzU3L2NRZDMrWk9nRmpnRjhWU0x3eVpHZHFub2dlZjFURnphb1B6RHZOaXVaRzhXT1cvNnpRMUxXM0N4a1g0VUQ5MW44UldKc0VTWWhVelNOMHB3WTRkZWJBKzJUOWlaclp0TmxNdjlRWVo3ekhjbms2bU5OSW44YWY3MllFSHRkVU5hY3FMTlJRZWQrN21MRXE3WEJ4SWVVTmNvcDhYcTZ5ZnhtZE0rdjFDaUpzUXZHc3d6NktUY1YwWUdmUmxuS0I3UzJjZUxONWptRVRINUkweGh0MTFGL05pcFVITVlCTDlaSkRHaisxYVltTGpJdHRwbUJlTFhjZEI2azdkZU9TQnR3dnJDQ0ZXQ2Q2dTNobkJVbThpRzlXaTQrbG9PcGt5aDlZZ2k1L2wxMFhrRUtRd0wxYWV4QnVMekwydzYyVVdiWG14OE1XcTMrQ2ptWlVRYTRURmRETHpZVHFaeVh5d0d0OWpPTXdtK3YxTldmU2dQRHNvN2FmUlYvUEVMUzRqODhUOW9VampmN215NS9adEV4dit2ckYzNEtGRmJ6VDNlNTF1QnZlTHJuWUpJVll4ZFRxWlBJMi9GY1lZRnBrN3UraE5GbU9JdjlWMmNZbXVIMzJ2WVhUREFHZFFiR1h0Qm5XN1ptampPbk1IZjY3RVhSRDZZZ2toMWpEYjA4bkVJekdHbFhpOC9lcWUyemVzVStNN25vNW1HaTEzSkw4MTZFWEhkaG5VdHg2M2ZxOEJPNWhwM0NjOGFQRzcwK2dLZkxTNk1wVUtJZFl3ZFRvWmY2bFhDZGRWUmVKZWdPRStyRlBEZXdxM3h4aEdGMlByNm9vWkpDL1dJSEdQejVQNG9sRVBlNEtweDJjcUZVS0l4YVZlUDUxNTcwZzZtYUdvWExpUXpUeXFLdy9XMWczNzNacFpVNXZZMUhteGlzeDl6YmR4bGVscTB2aWp1RkYwTFIyRkVHSUgydExKVkhtd3p1R1Y4VzJpMU1hZzU5WVZTZnloa2J4WTVUSXdPZyszaWE2bG94QkNqT1hDRTl3dEZ1Wm5IbGtrOFk5R2ZiREtwZHVaT0lTR2RVS0szc0Y3OTVQb05EK2R6VkNzM0MvSExSMkZFR0pxeWhqREpEclpqekVzUlFkamVlcE9hVEtPbDNteGtoM3pZZzNUemJoVDlaNUJJY1N5c2VoNG1qVTRubWJ4endaWjlCaVdkYnlJZ2xqRmZocDlkMlE1S2NkUEljU3VadlE5aHR0akRER2k0ekJhekx1enc2U0FjdndVUXV4V0ZoMVBkNGd4OUVyaUx0Z294MDhoeEVvQm8vbEM4QjdETWpZeGNTZGgrd3FQRjBLSTNVN3BlSnE2VXdjazRSdnpua0VoaE5qdElGSVNLaUdFRUVJSUlZUVFRZ2doaEJCQ0NDR0VFRUlJSVlRUVFnZ2hoQkJDQ0NHRUVFSUlJWVFRUWdnaHhFMFRYa1hGQzBYcndodGYxbkk2RlRLSjN0SE03bFFWL3IxUzBpRFREdHEzM1BlSFB1RmZnNzFYMERVUWE1eVRlSE1Wcjltcnl1L003UGJoUVd1SVI1alpKak83dWlwY0V4Y2V0SXRCb0I1blpoZWJXZC9Nemx6bWUvUUE4aGQ2MTJEQnpPNGVIaVRFN3VCRnd6eDFpNFVPZW9md29EWEVYNXZaamQ3MXVNSE1ac09EZGpHSFYvZWxidE5XTS90bnMyVjdvL1F4Wm5hZDkzMS9NTE94NzJzVVlsZXdFZ1NMWmM0THpleWxYbGtmSHJTTFdJbUM5WkxnSGxFdU5MUGx5aTh2d1JJcmxwVWdXTGMxczgxQk8vNDJQR2dYc1JJRjYwbEJteWhmcm9SK09aQmdpUldMQkd1VWxTaFl2SVg2UzlWU2tEWmh4MHJEZzNZaUVpeXhZcEZnamJJU0JRdll2WDJVbVQzYnpQWmI1cDFDQ1paWXNVaXdSbG1wZ3JVcmtXQ0pGWXNFYXhRSmxnUkw3R0l3eHY2bG1iM0J6TTQyczIrYjJYK1oyVnZNN0ltVmcyak50SUxGVXVUQWFpZnZnMmIyVFRNN3o4emVYKzFtM2M5YnJpQkVKNXZaODd6eVo5Vm4rRFloU2hSOHdmNFl0T09qUVQyTzRYeE44SDMzTkxNWG1ObDd6T3kvemV4Ylp2YWZabmFxbWYyRjV3S0FVK1F6ZzNQVDVwb3V3ZUo3YVA4cFp2WVpNL3UxbVYxbVp0OHdzemVhMmJGbXRxZDNyaEErWXplVU50WGxzT296emgyYjJXbG05dDNxdlBoREFXMyt1NkROODk1NW04RFI4MUF6ZTRXWmZjck1mbUZtRzgzczU5WC92OHJNNXFwemgwd3JXTnpMNXdidGUxYkQvV0lwU3gvNXZKbjl4c3grYTJibm1Oa3J6V3pkTWk5enhRcUVHLzRRTXp1L1lWZXBMdnlkenZMNDZ2aHBCSXZCaWdqUWdjUHoxdVhhU3J6dVVva0lBOTcvL1BqcVhIVHFMWlVodVRZbWQ1VzJRYk9QbWYxYjFlNjI4eUNHQ014OUt3TTJqckwrNTQveHp0Y21XTGdRdk1uTWZ0OXcvcnBjWHdrNFl0STArRGpIVlVFZGJGS0lDeUxvKzFwUi9xcXF4d1BteXVBemhLMEp2cGZ2NXdFVlBnVENnaWh4SEFaODM2ZHJHc0hDL2VTWERlZDlzdWNkejMvNW5UaWp0dDJqYTh6c242cjdJOVlBUENsZjF5QVFiWVhqWGw4OTVmMi90d25XVVdaMmVjTjUyZ3FpeVN3dmJJOHZXRzJkdDZrMERacER6T3luVTV6bjB1cDNoTXZQTHNIaTMwZWIyVmVtK0I1RSs2a05qcDFOZ3ZVY00vdUhodXRFbVZhd0VJWVhWNE0vUEZkWFFkam9DeGoyWVZMQm1rU3NFRkJtbGY3NTJnclg5OU1OTXpPeHltQmd2TFpqUVBGM252N2g1d3pHOENuY0pGaEhWQ0VxNFhucndtQnJtdEdGNTZic0xNRmlHY2VTTER5dUxyU25xVTBNblBCN3V3U0xnZ0NGZGNZVnZvZHdHbittMVNSWVArcVl0VTBqV1BRQmxsYmM1L0E4a3hUYVczL2ZKSUkxaVZqQlREV3o4by9qZkN4N2NYNE4rd2pYbVpsczAxSlZyQkllMURESUtIUW9sbndNYm9KWldhSmh2Nkd6aE1mV0pSUXM2bUgzQ0kvaktmNzJhc1pDZ0N4THN3ZFh5OEdtMlVKZGFzRzZqNWs5ckNvNFJvWWQ5L1FxSktVdTJIcHFSOGxiVm5hajhOeWNnemk3NDh6c3psVmhsdmZ1TVUvNGNZSlZGMzRYOWgvc2JnZFVTOHdUemV5c0ZxRkFuRGltcGttdy9NSmdSWmcrVnkyOStkMHdpV0FoTmsxTGRlNFR2LzlwMVZJUk1YcSttWDNTdStaY202ZDdJakZPc05yRWl2c1lCa2xqUS9QRi9vZlZOZUZlY2gvLzNNeSs0MzJPbVFBYmw1YUdxeFJ1K28rRHprTUgrVkREVEttR0FkQTJJd3NGaStQQ1kzNVdHYktiN0RSMFdJelBWelRVbzlTQzVUUHRMaUhMTFRxMmYvd2xablprd3pJTStCdDJtcllaMlNTQ2hiTW00dHIwNU9jM0k1SVl5c042Q0dnOWlMc0VpK3YxTjlXMTREdG9jMzE5eHdrV2c1dVpXbmpPcjFjYkpFM1hoRFloRmwrbzdKbSswSFFKMWpSaUJSOExqc1VZSDNLdktyQWJNOEtqdmFXcFdJVThzcUdqOG9UcTJxMENPaGNCdEdGZFg3QnUxeUE4Uk81SHdibWFZSWNybkRWUmxpcFkvSzRmQk1lU1hRRUJIUWN6bHZCN0tPTUVpd0dMSURVSnRBOHptSEI1eDFMNkh0WG5iWUxGMzlvZUFEQk9zQjdiTUt0bGw1U1o3emhxY2ZScEU2eURweFFyWUxQRFAvNk1sbU9ac1dwV3RRYjRjTkFoc0xld1JUd0pwQ2hoeDlDdjd3c1d5NHh3Rm9hQnVHMWcrWERNdndaMUtVc1ZMQVpOdVB4NlRjT2dhNEkyNFg0US9xWnhndldPbGtFVzBuWitsbzNRSkZnY2krRzk2NXAyQ1JiMVBoSjhoc0Rnc3ZEL0pSUXMvdjJFYWhicmY4ODRzUUlFeXEvRFF3eGJHNllHc1FiQnY4YnZFRHpScG9HdFpMKytMMWo0Y2ZtZllRL1pONmpmQllNbUhQeExGYXhuQklMQUFQRHRST05nZGhqTy9Mb0VDM0ZrNlRRcExNRjRhUGpuZjFzbExFMkN4YzdydUpsUWwyQmhFZ2h0akN6emxoSVlIUW9XSlp6QlRTSld3Rkk4M0xYay9qSHovRUFsNW9oWGwyQ0xWVVJvYU1XaGN4cFlVdm9DNEFzV3htVC8zUDg3UVFmMVlZb2ZEdENsQ3RZL0JzY3hXQm0wazRKOUpKd3BkQWtXem8zVHBIR2hMZGo0L1BQekVHSHAxU1JZT01nMjJjVjh1Z1NMelk1d0I1Y1p6RkpvRXF5d01EUEhFWFFjOUpjM056eTQ2b0l0a3ZhL1U4NmphNE93QS94OWVNQVllaDJDUllZQS85dzRHVTZ5OUtyaEtSL09BSmNxV0N6UC9PUCtad0o3blEvaXdFNlZmNDR1d2NJUVBJMGdjbjJ3SC9ubjU3clJ4aWJCWWprN2ppN0Iyci9oMmszYkIwSW1FU3dLdTVtVGlEbS9IY2ZZc0oxaHdhRjNrbG1idUFrVFBybGVGaDR3aHE0WkZsdjQvcmt2bUxJejBaa0pCL0hQc1ZUQklyeklQdzVCbkVaUW1HSDlLamhIbDJDeHMraUhNbzJEd1JudTJoSWUxVGJESXFSbEhGMkNkZGRxMDhIL2JObytFTklrV0N6ckVHKy9yL0J2N3Nja0R3eG1UdmV1bkp1NVoyRy9yUXZmeXozUVRHdVZFbTZsODlTYkJwejAvUHErWUdGNzhUL0ROak5OYm05OHA4S091VlRCSWw0d3RHR3h3elFweEwxTlk4TmlBQkhqTnlsczBZY2hOb1FPTWZOcUVpeENWc2JSSlZnSWNPaXU4WWtKUmFTTlVMQll0ckVUU2JnVk0xci91N0J0TWFPYmRPYU5FTkZtTms5WXV2Nmt3VVdGdnkxbnpucXhHeUY0MUwvWjJMVHdMcDZFY2J1RWVDMkhPMTdZeUNaNStuRU1kZ20vTG1WU3dXTG5yQW5jSlVJRE1JTjMwamF4eVJEK3BpN0JvdURFT3VtQVpIWVRuaCsvTVZnT3dlSTNmVGI0RE5lS1NmdEFFNkZnOGUvYWxZWC9ZdGZ6djQ4K2crL2RKUGNnaE4vR3N0amYrZVg2VDdQUklXNUNrTVhBN3p5VVNkTG5zclI3YTBOZFg3RHd2UWwzZUxBekhCU2Nxd2s4NE1PWkRLVkpzSm9Da25FUGFCb0FEUHBRWkJtZ3RWZDRGeHdUK2tsUnhna1cxeUR4am1tRElPbHdDY3ozTWV1QzVSQXNZSVlUemxMd3hadkV2dFJFbDJBQkVRM2hMSko3MHVhZmh6OGZNWTdFWkRiQjd3djl1K3BNRldLVmdRMGpIT3c4NFQvZTRldkNsSnpkdHJDVFUzekJRakJJSVJNZVErZmEwQ0lvL08yQkRRT3pMazJDMVdTY3gxN1c1dkdNSFNTY3hmRFVwNU8zdFluUFFxR3J5empCb3ZENk13WmMwL2tCeDg5d2Q1QkNxRktYcC92T0VDeVdhZ1IyKzU5emZWZ2Ewai9hd0Iza3ZWWDRrdis3eGdrV3h6WUZiQlB5eGE1bERlM21nVXJiNkd0NDQ5ZE90RDRJbXQ5KzJrNzhxbGlGMEhtSTEvSTdUbjNUR2NSOHhzM0hmNG9aQUVISDdKS0ZBNzR1WVdnT2ZrV2hVWmVDUFl2T2p0R2VHRVZtRWRnNWNJVUlEYlorYVJJc1FHRDk0MmdmNStKcFRqZ0lNNXhha0JpRW9kMkd3bklZZ1QyaDJqMmpJRUQ4TFhULzhNc2tnbFdmL3orcTJFMEdKdjVUZUxjVE1kQTBjeVBvMTErYUxaZGdBYk9zVUVBbzJEZ1JlR2E4aUFXdUEvZytJYVIxbXdrN3lqelJHaWRZd0NiQyt4cjZFVzRhOVNZRjV3eG5ZdCt2ZHFickZRQm1DV0pTL1d2T2RXc1NOckZLb0lNMEJRUFhCZnNBZzYxTFNPb1NDaGFkbU1EWXB0a1loWTdHdVZuK2hjYzBEZncyd1NLZUxheFBZUkRTYm40RDdnSDFiQVhSYUZweSttMmloRzBJLzU4eVRyRENRVW1iV0NaeXJVS3ZlLzhZTmc3OG1jdHlDaFpHZG9LY202NWgzWjYyKzBSaEJsbEhTRXdpV0VBL0lYbWpmeDdPVGFvYUJJMFNQb2dvWERNY1ppK3FIb1poZTRpL0hPZWJKbTdpM0MySWVwK2trQkdnYTVld0JwSEFCaEVPNUs1Q25pcG1SK0ZUdjAyd2NFMGdXRGM4ajErKzZuVmtoSUNaUXVoVjNsVVk5Q3gvUWdOL2wyQXh3RW1LR0M1WnV3b0RuS1ZRNkFLeW5JSUZYRVA4MU1KclBxN1FKcTVsdmJNNHFXQUJPN1NobXdpQ3hQbllxTUFPT2syL3hIVkNzNnMxQXRQclNUb3NUMW82UEIxODBveWpERDVlNHg1NmlZZUZweVdoSVN6SHVqS09Oa0huWnNNZ25OSFV4UmNzUUxSWWR1Q0IzMWFId21la2lXWnB5WTVrYVBQckVxemFsUU43RHp1eTRXd2dMUGhnWWNOcjJsVmNic0VDcmc5djF5SFhWTmMxb1NERy8xN2RwMmxzV0NIc0VJWkxZcnpYNjFlUnNZUW5ES2RyaHM5MXhlOXZFdTk1c1lwQVdQQTFZdVpVSjRkRG9KaFZNT3RoOTQzT1YzZFFsbGJZb3VxQ3oxQ1hveVNpU0lvUW5DR3hmVENnV1I2UjFRRmIwVU85SnpWR2Yxd0NjQzZzeTdqdGRrU1VBY095QXJjSTJzUi8rVDI0V2JRSkFibnFzWGtoQ0xTSlFtWUpETThFN3RZR2ZNN1B1ZjAya2JtMEJ1ZEdja2V4REtZOHhkdHR3KzZDR0hHTldNNGdmQlRzYWRpRStKNnVuVG51RFlKZDV3R2o4SDNqb0I0emxycE5sRG9YZkJ2Y1EyYTRYTGR6SzNzbW9zY0RoNnllMkRaSmVSM09Bb0VIQjY0WTlYZng3NzNEZ3p6b1N3VEs0OUxoRjY1SGZYNyt5OFlFMS81cjFSS1VQc09EaEFCcGJKVGpkcmJGS29aT3hDREZPTXdVbTUya3BsMDNqZ3ZMSlBBa1p5Ykc3QU9EUGpzOVRXS3lGS1p0RTRPQ2R0QWUya1g3bWdia1VxbXZMWU1ZVVVZY2R2WnYzMW5RVnU0VjdjVjloUC91YnZzUTM4ODFROXdScVVudnJ4QkNDQ0dFRUVJSUlZUVFRZ2doaEJCQ0NDR0VFRUlJSVlRUVFnZ2hoQkJDQ0NHRUVFSUlJWVFRUWdnaGhCQkNDQ0dFRUVJSUlZUVFRZ2doaEJCQ0NDR0VFRUlJSVlRUVFnZ2hoQkJDQ0NHRUVFSUlJWVFRUWdnaGhCQkNDQ0dFRUVJSUlZUVFRZ2doaEJCQ0NDR0VFRUlJSVlRUVFnZ2hoQkJDQ0NHRUVFSUlJWVFRUWdnaGhCQmk1ZkovNkgreXFSbE5lMVlBQUFBQVNVVk9SSzVDWUlJPSIgaGVpZ2h0PSIyMDAiIHdpZHRoPSIzMDAiLz48Y2xpcFBhdGggaWQ9ImNsaXAzIj48cGF0aCBjbGlwLXJ1bGU9ImV2ZW5vZGQiIGZpbGwtcnVsZT0iZXZlbm9kZCIgZD0iTTMzOTIwNSAyNDY2MzcgMTY0NDEzMCAyNDY2MzcgMTY0NDEzMCAxMDg5MzkzIDMzOTIwNSAxMDg5MzkzWiIvPjwvY2xpcFBhdGg+PC9kZWZzPjxnIHRyYW5zZm9ybT0idHJhbnNsYXRlKC05MjMgLTQwKSIgY2xpcC1wYXRoPSJ1cmwoI2NsaXAwKSI+PGcgdHJhbnNmb3JtPSJtYXRyaXgoMC4wMDAxMDQ5ODcgMCAwIDAuMDAwMTA0OTg3IDkyMyA0MCkiIGNsaXAtcGF0aD0idXJsKCNjbGlwMSkiPjxnIHRyYW5zZm9ybT0ibWF0cml4KDEgMCAwIDEuMDA1OSAtMzM5MjA1IC0yNDgwOTIpIiBjbGlwLXBhdGg9InVybCgjY2xpcDMpIj48dXNlIHRyYW5zZm9ybT0ic2NhbGUoNjU0OS43NCA2NTQ5Ljc0KSIgeGxpbms6aHJlZj0iI2ltZzIiIGhlaWdodD0iMTAwJSIgd2lkdGg9IjEwMCUiLz48L2c+PC9nPjwvZz48L3N2Zz4=;" vertex="1" parent="1">
          <mxGeometry x="617.39" y="101.5" width="161.22" height="108" as="geometry" />
        </mxCell>
        <mxCell id="jjztUm_TLLlTqd2cXKNr-45" value="downloads" style="text;html=1;align=center;verticalAlign=middle;whiteSpace=wrap;rounded=0;fillColor=default;" vertex="1" parent="1">
          <mxGeometry x="110" y="360" width="56" height="21.37" as="geometry" />
        </mxCell>
        <mxCell id="jjztUm_TLLlTqd2cXKNr-46" value="triggers" style="text;html=1;align=center;verticalAlign=middle;whiteSpace=wrap;rounded=0;fillColor=default;" vertex="1" parent="1">
          <mxGeometry x="190" y="305" width="100" height="20" as="geometry" />
        </mxCell>
        <mxCell id="jjztUm_TLLlTqd2cXKNr-48" value="triggers" style="text;html=1;align=center;verticalAlign=middle;whiteSpace=wrap;rounded=0;fillColor=default;" vertex="1" parent="1">
          <mxGeometry x="638" y="270" width="100" height="20" as="geometry" />
        </mxCell>
        <mxCell id="jjztUm_TLLlTqd2cXKNr-49" value="saves" style="text;html=1;align=center;verticalAlign=middle;whiteSpace=wrap;rounded=0;fillColor=default;" vertex="1" parent="1">
          <mxGeometry x="287.5" y="360" width="56" height="21.37" as="geometry" />
        </mxCell>
        <mxCell id="jjztUm_TLLlTqd2cXKNr-50" value="gets" style="text;html=1;align=center;verticalAlign=middle;whiteSpace=wrap;rounded=0;fillColor=default;" vertex="1" parent="1">
          <mxGeometry x="500" y="360" width="56" height="21.37" as="geometry" />
        </mxCell>
        <mxCell id="jjztUm_TLLlTqd2cXKNr-51" value="saves" style="text;html=1;align=center;verticalAlign=middle;whiteSpace=wrap;rounded=0;fillColor=default;" vertex="1" parent="1">
          <mxGeometry x="691" y="461" width="56" height="30" as="geometry" />
        </mxCell>
      </root>
    </mxGraphModel>
  </diagram>
</mxfile>
